<mxfile host="app.diagrams.net" modified="2021-03-25T16:55:13.889Z" agent="5.0 (Windows NT 10.0; Win64; x64) AppleWebKit/537.36 (KHTML, like Gecko) Chrome/89.0.4389.90 Safari/537.36" etag="2KRSegBMUQjseaHNy2uh" version="14.4.9" type="github" pages="7">
  <diagram id="Yshll1KeJVqe1WhWziSk" name="Page-1">
    <mxGraphModel dx="1393" dy="762" grid="1" gridSize="10" guides="1" tooltips="1" connect="1" arrows="1" fold="1" page="1" pageScale="1" pageWidth="827" pageHeight="1169" math="0" shadow="0">
      <root>
        <mxCell id="0" />
        <mxCell id="1" parent="0" />
        <mxCell id="Qh0jjnEe6WZRLldCU-LE-3" style="edgeStyle=orthogonalEdgeStyle;rounded=0;orthogonalLoop=1;jettySize=auto;html=1;exitX=0.5;exitY=1;exitDx=0;exitDy=0;entryX=0.5;entryY=0;entryDx=0;entryDy=0;" parent="1" source="3u4fdiKWrIFw9B-NbYQv-1" target="Qh0jjnEe6WZRLldCU-LE-1" edge="1">
          <mxGeometry relative="1" as="geometry" />
        </mxCell>
        <mxCell id="3u4fdiKWrIFw9B-NbYQv-1" value="&lt;font style=&quot;font-size: 14px&quot;&gt;获取写的地址wp&lt;/font&gt;" style="rounded=1;whiteSpace=wrap;html=1;" parent="1" vertex="1">
          <mxGeometry x="74" y="415" width="120" height="60" as="geometry" />
        </mxCell>
        <mxCell id="Qh0jjnEe6WZRLldCU-LE-4" style="edgeStyle=orthogonalEdgeStyle;rounded=0;orthogonalLoop=1;jettySize=auto;html=1;exitX=0.5;exitY=1;exitDx=0;exitDy=0;entryX=0.5;entryY=0;entryDx=0;entryDy=0;" parent="1" source="Qh0jjnEe6WZRLldCU-LE-1" target="Qh0jjnEe6WZRLldCU-LE-2" edge="1">
          <mxGeometry relative="1" as="geometry" />
        </mxCell>
        <mxCell id="Qh0jjnEe6WZRLldCU-LE-1" value="&lt;span style=&quot;font-size: 14px&quot;&gt;往获取到的空闲&lt;br&gt;存储区写数据&lt;br&gt;&lt;/span&gt;" style="rounded=1;whiteSpace=wrap;html=1;" parent="1" vertex="1">
          <mxGeometry x="74" y="515" width="120" height="60" as="geometry" />
        </mxCell>
        <mxCell id="Qh0jjnEe6WZRLldCU-LE-6" value="" style="edgeStyle=orthogonalEdgeStyle;rounded=0;orthogonalLoop=1;jettySize=auto;html=1;entryX=0.5;entryY=0;entryDx=0;entryDy=0;" parent="1" source="Qh0jjnEe6WZRLldCU-LE-2" target="kgv-w4sO0Tsve0FI88D6-35" edge="1">
          <mxGeometry relative="1" as="geometry">
            <mxPoint x="-66" y="850" as="targetPoint" />
          </mxGeometry>
        </mxCell>
        <mxCell id="Qh0jjnEe6WZRLldCU-LE-2" value="&lt;span style=&quot;font-size: 14px&quot;&gt;根据状态判断是否进行UTC和CRC等扇区状态信息&lt;/span&gt;" style="rounded=1;whiteSpace=wrap;html=1;" parent="1" vertex="1">
          <mxGeometry x="74" y="635" width="120" height="80" as="geometry" />
        </mxCell>
        <mxCell id="kgv-w4sO0Tsve0FI88D6-8" style="edgeStyle=orthogonalEdgeStyle;rounded=0;orthogonalLoop=1;jettySize=auto;html=1;exitX=0.5;exitY=1;exitDx=0;exitDy=0;entryX=0;entryY=0.5;entryDx=0;entryDy=0;" parent="1" source="Qh0jjnEe6WZRLldCU-LE-5" target="kgv-w4sO0Tsve0FI88D6-4" edge="1">
          <mxGeometry relative="1" as="geometry" />
        </mxCell>
        <mxCell id="Qh0jjnEe6WZRLldCU-LE-5" value="&lt;font style=&quot;font-size: 14px&quot;&gt;更新写地址wp&lt;/font&gt;" style="rounded=1;whiteSpace=wrap;html=1;" parent="1" vertex="1">
          <mxGeometry x="74" y="920" width="120" height="60" as="geometry" />
        </mxCell>
        <mxCell id="kgv-w4sO0Tsve0FI88D6-3" style="edgeStyle=orthogonalEdgeStyle;rounded=0;orthogonalLoop=1;jettySize=auto;html=1;exitX=0.5;exitY=1;exitDx=0;exitDy=0;entryX=0.5;entryY=0;entryDx=0;entryDy=0;" parent="1" target="kgv-w4sO0Tsve0FI88D6-2" edge="1">
          <mxGeometry relative="1" as="geometry">
            <mxPoint x="374" y="130" as="sourcePoint" />
          </mxGeometry>
        </mxCell>
        <mxCell id="kgv-w4sO0Tsve0FI88D6-1" value="开始" style="rounded=0;whiteSpace=wrap;html=1;" parent="1" vertex="1">
          <mxGeometry x="314" y="80" width="120" height="60" as="geometry" />
        </mxCell>
        <mxCell id="kgv-w4sO0Tsve0FI88D6-9" style="edgeStyle=orthogonalEdgeStyle;rounded=0;orthogonalLoop=1;jettySize=auto;html=1;exitX=0.5;exitY=1;exitDx=0;exitDy=0;entryX=0.5;entryY=0;entryDx=0;entryDy=0;" parent="1" source="kgv-w4sO0Tsve0FI88D6-2" target="kgv-w4sO0Tsve0FI88D6-4" edge="1">
          <mxGeometry relative="1" as="geometry" />
        </mxCell>
        <mxCell id="kgv-w4sO0Tsve0FI88D6-32" style="edgeStyle=orthogonalEdgeStyle;rounded=0;orthogonalLoop=1;jettySize=auto;html=1;exitX=0.5;exitY=1;exitDx=0;exitDy=0;entryX=0.5;entryY=0;entryDx=0;entryDy=0;" parent="1" source="kgv-w4sO0Tsve0FI88D6-2" target="kgv-w4sO0Tsve0FI88D6-29" edge="1">
          <mxGeometry relative="1" as="geometry" />
        </mxCell>
        <mxCell id="kgv-w4sO0Tsve0FI88D6-2" value="&lt;font style=&quot;font-size: 14px&quot;&gt;数据初始化&lt;/font&gt;" style="rounded=1;whiteSpace=wrap;html=1;" parent="1" vertex="1">
          <mxGeometry x="314" y="180" width="120" height="60" as="geometry" />
        </mxCell>
        <mxCell id="kgv-w4sO0Tsve0FI88D6-5" style="edgeStyle=orthogonalEdgeStyle;rounded=0;orthogonalLoop=1;jettySize=auto;html=1;exitX=0.5;exitY=1;exitDx=0;exitDy=0;" parent="1" source="kgv-w4sO0Tsve0FI88D6-6" target="3u4fdiKWrIFw9B-NbYQv-1" edge="1">
          <mxGeometry relative="1" as="geometry" />
        </mxCell>
        <mxCell id="kgv-w4sO0Tsve0FI88D6-4" value="是否有保存数据事件是否发生" style="rhombus;whiteSpace=wrap;html=1;" parent="1" vertex="1">
          <mxGeometry x="34" y="290" width="200" height="80" as="geometry" />
        </mxCell>
        <mxCell id="kgv-w4sO0Tsve0FI88D6-6" value="Y" style="text;html=1;resizable=0;autosize=1;align=center;verticalAlign=middle;points=[];fillColor=none;strokeColor=none;rounded=0;" parent="1" vertex="1">
          <mxGeometry x="124" y="370" width="20" height="20" as="geometry" />
        </mxCell>
        <mxCell id="kgv-w4sO0Tsve0FI88D6-7" style="edgeStyle=orthogonalEdgeStyle;rounded=0;orthogonalLoop=1;jettySize=auto;html=1;exitX=0.5;exitY=1;exitDx=0;exitDy=0;" parent="1" source="kgv-w4sO0Tsve0FI88D6-4" target="kgv-w4sO0Tsve0FI88D6-6" edge="1">
          <mxGeometry relative="1" as="geometry">
            <mxPoint x="134" y="370" as="sourcePoint" />
            <mxPoint x="134" y="415" as="targetPoint" />
            <Array as="points">
              <mxPoint x="134" y="380" />
              <mxPoint x="134" y="380" />
            </Array>
          </mxGeometry>
        </mxCell>
        <mxCell id="kgv-w4sO0Tsve0FI88D6-20" style="edgeStyle=orthogonalEdgeStyle;rounded=0;orthogonalLoop=1;jettySize=auto;html=1;exitX=0.5;exitY=1;exitDx=0;exitDy=0;entryX=0.5;entryY=0;entryDx=0;entryDy=0;" parent="1" source="kgv-w4sO0Tsve0FI88D6-21" target="kgv-w4sO0Tsve0FI88D6-23" edge="1">
          <mxGeometry relative="1" as="geometry" />
        </mxCell>
        <mxCell id="xtE-4nw6ad4xntmjO7d0-7" value="" style="edgeStyle=orthogonalEdgeStyle;rounded=0;orthogonalLoop=1;jettySize=auto;html=1;" parent="1" source="kgv-w4sO0Tsve0FI88D6-21" target="xtE-4nw6ad4xntmjO7d0-5" edge="1">
          <mxGeometry relative="1" as="geometry" />
        </mxCell>
        <mxCell id="kgv-w4sO0Tsve0FI88D6-21" value="&lt;font style=&quot;font-size: 14px&quot;&gt;获取读的地址rp&lt;/font&gt;" style="rounded=1;whiteSpace=wrap;html=1;" parent="1" vertex="1">
          <mxGeometry x="344" y="410" width="120" height="60" as="geometry" />
        </mxCell>
        <mxCell id="kgv-w4sO0Tsve0FI88D6-22" style="edgeStyle=orthogonalEdgeStyle;rounded=0;orthogonalLoop=1;jettySize=auto;html=1;exitX=0.5;exitY=1;exitDx=0;exitDy=0;entryX=0.5;entryY=0;entryDx=0;entryDy=0;" parent="1" source="kgv-w4sO0Tsve0FI88D6-23" target="kgv-w4sO0Tsve0FI88D6-25" edge="1">
          <mxGeometry relative="1" as="geometry" />
        </mxCell>
        <mxCell id="kgv-w4sO0Tsve0FI88D6-23" value="&lt;span style=&quot;font-size: 14px&quot;&gt;获取需要发送的数据&lt;br&gt;&lt;/span&gt;" style="rounded=1;whiteSpace=wrap;html=1;" parent="1" vertex="1">
          <mxGeometry x="344" y="505" width="120" height="60" as="geometry" />
        </mxCell>
        <mxCell id="kgv-w4sO0Tsve0FI88D6-24" value="" style="edgeStyle=orthogonalEdgeStyle;rounded=0;orthogonalLoop=1;jettySize=auto;html=1;" parent="1" source="kgv-w4sO0Tsve0FI88D6-25" target="3K7jE72tFIdObAk_5Pin-1" edge="1">
          <mxGeometry relative="1" as="geometry" />
        </mxCell>
        <mxCell id="kgv-w4sO0Tsve0FI88D6-25" value="&lt;span style=&quot;font-size: 14px&quot;&gt;计算总包数&lt;br&gt;&lt;br&gt;&lt;/span&gt;" style="rounded=1;whiteSpace=wrap;html=1;" parent="1" vertex="1">
          <mxGeometry x="344" y="590" width="120" height="45" as="geometry" />
        </mxCell>
        <mxCell id="kgv-w4sO0Tsve0FI88D6-26" style="edgeStyle=orthogonalEdgeStyle;rounded=0;orthogonalLoop=1;jettySize=auto;html=1;exitX=0.5;exitY=1;exitDx=0;exitDy=0;entryX=0;entryY=0.5;entryDx=0;entryDy=0;" parent="1" source="kgv-w4sO0Tsve0FI88D6-27" target="kgv-w4sO0Tsve0FI88D6-29" edge="1">
          <mxGeometry relative="1" as="geometry" />
        </mxCell>
        <mxCell id="kgv-w4sO0Tsve0FI88D6-27" value="&lt;font style=&quot;font-size: 14px&quot;&gt;发送返回成功&lt;br&gt;更新写地址rp&lt;/font&gt;" style="rounded=1;whiteSpace=wrap;html=1;" parent="1" vertex="1">
          <mxGeometry x="344" y="910" width="120" height="60" as="geometry" />
        </mxCell>
        <mxCell id="kgv-w4sO0Tsve0FI88D6-28" style="edgeStyle=orthogonalEdgeStyle;rounded=0;orthogonalLoop=1;jettySize=auto;html=1;exitX=0.5;exitY=1;exitDx=0;exitDy=0;" parent="1" source="kgv-w4sO0Tsve0FI88D6-30" target="kgv-w4sO0Tsve0FI88D6-21" edge="1">
          <mxGeometry relative="1" as="geometry" />
        </mxCell>
        <mxCell id="kgv-w4sO0Tsve0FI88D6-29" value="是否有上传数据事件发生" style="rhombus;whiteSpace=wrap;html=1;" parent="1" vertex="1">
          <mxGeometry x="304" y="290" width="200" height="80" as="geometry" />
        </mxCell>
        <mxCell id="kgv-w4sO0Tsve0FI88D6-30" value="Y" style="text;html=1;resizable=0;autosize=1;align=center;verticalAlign=middle;points=[];fillColor=none;strokeColor=none;rounded=0;" parent="1" vertex="1">
          <mxGeometry x="394" y="370" width="20" height="20" as="geometry" />
        </mxCell>
        <mxCell id="kgv-w4sO0Tsve0FI88D6-31" style="edgeStyle=orthogonalEdgeStyle;rounded=0;orthogonalLoop=1;jettySize=auto;html=1;exitX=0.5;exitY=1;exitDx=0;exitDy=0;" parent="1" source="kgv-w4sO0Tsve0FI88D6-29" target="kgv-w4sO0Tsve0FI88D6-30" edge="1">
          <mxGeometry relative="1" as="geometry">
            <mxPoint x="404" y="360" as="sourcePoint" />
            <mxPoint x="404" y="405" as="targetPoint" />
            <Array as="points">
              <mxPoint x="404" y="370" />
              <mxPoint x="404" y="370" />
            </Array>
          </mxGeometry>
        </mxCell>
        <mxCell id="kgv-w4sO0Tsve0FI88D6-34" style="edgeStyle=orthogonalEdgeStyle;rounded=0;orthogonalLoop=1;jettySize=auto;html=1;exitX=0.5;exitY=1;exitDx=0;exitDy=0;entryX=0.5;entryY=0;entryDx=0;entryDy=0;" parent="1" source="kgv-w4sO0Tsve0FI88D6-33" target="kgv-w4sO0Tsve0FI88D6-27" edge="1">
          <mxGeometry relative="1" as="geometry" />
        </mxCell>
        <mxCell id="kgv-w4sO0Tsve0FI88D6-33" value="&lt;span style=&quot;font-size: 14px&quot;&gt;维护发送状态&lt;br&gt;如，当前seq，已发送长度，&lt;br&gt;&lt;/span&gt;" style="rounded=1;whiteSpace=wrap;html=1;" parent="1" vertex="1">
          <mxGeometry x="344" y="740" width="120" height="105" as="geometry" />
        </mxCell>
        <mxCell id="kgv-w4sO0Tsve0FI88D6-36" style="edgeStyle=orthogonalEdgeStyle;rounded=0;orthogonalLoop=1;jettySize=auto;html=1;exitX=0.5;exitY=1;exitDx=0;exitDy=0;" parent="1" source="kgv-w4sO0Tsve0FI88D6-35" target="Qh0jjnEe6WZRLldCU-LE-5" edge="1">
          <mxGeometry relative="1" as="geometry" />
        </mxCell>
        <mxCell id="kgv-w4sO0Tsve0FI88D6-35" value="&lt;span style=&quot;font-size: 14px&quot;&gt;维护写的状态&lt;br&gt;如 已写的长度wp_len，已写的sector等&lt;br&gt;&lt;/span&gt;" style="rounded=1;whiteSpace=wrap;html=1;" parent="1" vertex="1">
          <mxGeometry x="74" y="780" width="120" height="80" as="geometry" />
        </mxCell>
        <mxCell id="3K7jE72tFIdObAk_5Pin-2" value="" style="edgeStyle=orthogonalEdgeStyle;rounded=0;orthogonalLoop=1;jettySize=auto;html=1;" parent="1" source="3K7jE72tFIdObAk_5Pin-1" target="kgv-w4sO0Tsve0FI88D6-33" edge="1">
          <mxGeometry relative="1" as="geometry" />
        </mxCell>
        <mxCell id="3K7jE72tFIdObAk_5Pin-1" value="&lt;span style=&quot;font-size: 14px&quot;&gt;打包数据&lt;br&gt;&lt;/span&gt;" style="rounded=1;whiteSpace=wrap;html=1;" parent="1" vertex="1">
          <mxGeometry x="344" y="660" width="120" height="45" as="geometry" />
        </mxCell>
        <mxCell id="wulihkaNkMiMiwby88rM-20" value="" style="edgeStyle=orthogonalEdgeStyle;rounded=0;orthogonalLoop=1;jettySize=auto;html=1;" parent="1" source="xtE-4nw6ad4xntmjO7d0-5" target="wulihkaNkMiMiwby88rM-3" edge="1">
          <mxGeometry relative="1" as="geometry" />
        </mxCell>
        <mxCell id="xtE-4nw6ad4xntmjO7d0-5" value="" style="shape=process;whiteSpace=wrap;html=1;backgroundOutline=1;" parent="1" vertex="1">
          <mxGeometry x="549" y="410" width="120" height="60" as="geometry" />
        </mxCell>
        <mxCell id="wulihkaNkMiMiwby88rM-2" value="" style="edgeStyle=orthogonalEdgeStyle;rounded=0;orthogonalLoop=1;jettySize=auto;html=1;" parent="1" source="wulihkaNkMiMiwby88rM-3" target="wulihkaNkMiMiwby88rM-5" edge="1">
          <mxGeometry relative="1" as="geometry" />
        </mxCell>
        <mxCell id="wulihkaNkMiMiwby88rM-3" value="读取rp" style="rounded=1;whiteSpace=wrap;html=1;" parent="1" vertex="1">
          <mxGeometry x="549" y="530" width="120" height="60" as="geometry" />
        </mxCell>
        <mxCell id="wulihkaNkMiMiwby88rM-4" value="" style="edgeStyle=orthogonalEdgeStyle;rounded=0;orthogonalLoop=1;jettySize=auto;html=1;" parent="1" source="wulihkaNkMiMiwby88rM-5" target="wulihkaNkMiMiwby88rM-8" edge="1">
          <mxGeometry relative="1" as="geometry" />
        </mxCell>
        <mxCell id="wulihkaNkMiMiwby88rM-5" value="从存储在ram的&lt;br&gt;变量读取" style="whiteSpace=wrap;html=1;rounded=1;" parent="1" vertex="1">
          <mxGeometry x="549" y="630" width="120" height="60" as="geometry" />
        </mxCell>
        <mxCell id="wulihkaNkMiMiwby88rM-6" style="edgeStyle=orthogonalEdgeStyle;rounded=0;orthogonalLoop=1;jettySize=auto;html=1;exitX=1;exitY=0.5;exitDx=0;exitDy=0;entryX=0.5;entryY=0;entryDx=0;entryDy=0;" parent="1" source="wulihkaNkMiMiwby88rM-8" target="wulihkaNkMiMiwby88rM-19" edge="1">
          <mxGeometry relative="1" as="geometry">
            <mxPoint x="884" y="1070" as="targetPoint" />
          </mxGeometry>
        </mxCell>
        <mxCell id="wulihkaNkMiMiwby88rM-7" value="Y" style="edgeLabel;html=1;align=center;verticalAlign=middle;resizable=0;points=[];" parent="wulihkaNkMiMiwby88rM-6" vertex="1" connectable="0">
          <mxGeometry x="-0.8175" y="-1" relative="1" as="geometry">
            <mxPoint as="offset" />
          </mxGeometry>
        </mxCell>
        <mxCell id="wulihkaNkMiMiwby88rM-8" value="是否读到？" style="rhombus;whiteSpace=wrap;html=1;rounded=1;" parent="1" vertex="1">
          <mxGeometry x="544" y="730" width="130" height="70" as="geometry" />
        </mxCell>
        <mxCell id="wulihkaNkMiMiwby88rM-9" value="" style="edgeStyle=orthogonalEdgeStyle;rounded=0;orthogonalLoop=1;jettySize=auto;html=1;entryX=0.5;entryY=0;entryDx=0;entryDy=0;exitX=0.5;exitY=1;exitDx=0;exitDy=0;" parent="1" source="wulihkaNkMiMiwby88rM-8" target="wulihkaNkMiMiwby88rM-12" edge="1">
          <mxGeometry relative="1" as="geometry">
            <mxPoint x="609" y="820" as="sourcePoint" />
            <mxPoint x="609" y="880" as="targetPoint" />
            <Array as="points" />
          </mxGeometry>
        </mxCell>
        <mxCell id="wulihkaNkMiMiwby88rM-10" value="N" style="edgeLabel;html=1;align=center;verticalAlign=middle;resizable=0;points=[];" parent="wulihkaNkMiMiwby88rM-9" vertex="1" connectable="0">
          <mxGeometry x="-0.7636" y="1" relative="1" as="geometry">
            <mxPoint as="offset" />
          </mxGeometry>
        </mxCell>
        <mxCell id="wulihkaNkMiMiwby88rM-11" value="" style="edgeStyle=orthogonalEdgeStyle;rounded=0;orthogonalLoop=1;jettySize=auto;html=1;" parent="1" source="wulihkaNkMiMiwby88rM-12" target="wulihkaNkMiMiwby88rM-15" edge="1">
          <mxGeometry relative="1" as="geometry" />
        </mxCell>
        <mxCell id="wulihkaNkMiMiwby88rM-12" value="从flash存储区读" style="rounded=1;whiteSpace=wrap;html=1;" parent="1" vertex="1">
          <mxGeometry x="549" y="860" width="120" height="60" as="geometry" />
        </mxCell>
        <mxCell id="wulihkaNkMiMiwby88rM-13" style="edgeStyle=orthogonalEdgeStyle;rounded=0;orthogonalLoop=1;jettySize=auto;html=1;exitX=1;exitY=0.5;exitDx=0;exitDy=0;entryX=0.5;entryY=0;entryDx=0;entryDy=0;" parent="1" source="wulihkaNkMiMiwby88rM-15" target="wulihkaNkMiMiwby88rM-19" edge="1">
          <mxGeometry relative="1" as="geometry" />
        </mxCell>
        <mxCell id="wulihkaNkMiMiwby88rM-14" value="Y" style="edgeLabel;html=1;align=center;verticalAlign=middle;resizable=0;points=[];" parent="wulihkaNkMiMiwby88rM-13" vertex="1" connectable="0">
          <mxGeometry x="-0.8467" y="-1" relative="1" as="geometry">
            <mxPoint as="offset" />
          </mxGeometry>
        </mxCell>
        <mxCell id="wulihkaNkMiMiwby88rM-15" value="是否读到？" style="rhombus;whiteSpace=wrap;html=1;rounded=1;" parent="1" vertex="1">
          <mxGeometry x="554" y="950" width="110" height="80" as="geometry" />
        </mxCell>
        <mxCell id="wulihkaNkMiMiwby88rM-16" value="" style="edgeStyle=orthogonalEdgeStyle;rounded=0;orthogonalLoop=1;jettySize=auto;html=1;exitX=0.5;exitY=1;exitDx=0;exitDy=0;" parent="1" source="wulihkaNkMiMiwby88rM-15" target="wulihkaNkMiMiwby88rM-18" edge="1">
          <mxGeometry relative="1" as="geometry">
            <mxPoint x="609" y="1050" as="sourcePoint" />
          </mxGeometry>
        </mxCell>
        <mxCell id="wulihkaNkMiMiwby88rM-17" value="N" style="edgeLabel;html=1;align=center;verticalAlign=middle;resizable=0;points=[];" parent="wulihkaNkMiMiwby88rM-16" vertex="1" connectable="0">
          <mxGeometry x="-0.7333" y="1" relative="1" as="geometry">
            <mxPoint as="offset" />
          </mxGeometry>
        </mxCell>
        <mxCell id="wulihkaNkMiMiwby88rM-18" value="读取最新的再去遍历直到为0xFF" style="rounded=1;whiteSpace=wrap;html=1;" parent="1" vertex="1">
          <mxGeometry x="549" y="1070" width="120" height="60" as="geometry" />
        </mxCell>
        <mxCell id="wulihkaNkMiMiwby88rM-19" value="返回rp" style="rounded=1;whiteSpace=wrap;html=1;" parent="1" vertex="1">
          <mxGeometry x="694" y="1070" width="120" height="60" as="geometry" />
        </mxCell>
        <mxCell id="aOmzwYl6putw8qLtTHae-1" value="&lt;font style=&quot;font-size: 24px&quot;&gt;sta区存储和读取流程图&lt;/font&gt;" style="text;html=1;strokeColor=none;fillColor=none;align=center;verticalAlign=middle;whiteSpace=wrap;rounded=0;" parent="1" vertex="1">
          <mxGeometry x="10" y="10" width="260" height="40" as="geometry" />
        </mxCell>
      </root>
    </mxGraphModel>
  </diagram>
  <diagram id="5nd3lFEQ99d_9qUJ0lhs" name="Page-2">
    <mxGraphModel dx="1422" dy="762" grid="1" gridSize="10" guides="1" tooltips="1" connect="1" arrows="1" fold="1" page="1" pageScale="1" pageWidth="827" pageHeight="1169" math="0" shadow="0">
      <root>
        <mxCell id="n50_d16GfCH-7NYCIRMe-0" />
        <mxCell id="n50_d16GfCH-7NYCIRMe-1" parent="n50_d16GfCH-7NYCIRMe-0" />
        <mxCell id="e7zCo95LPuhCvYkLJTaY-2" value="" style="edgeStyle=orthogonalEdgeStyle;rounded=0;orthogonalLoop=1;jettySize=auto;html=1;" parent="n50_d16GfCH-7NYCIRMe-1" source="e7zCo95LPuhCvYkLJTaY-0" target="e7zCo95LPuhCvYkLJTaY-1" edge="1">
          <mxGeometry relative="1" as="geometry" />
        </mxCell>
        <mxCell id="e7zCo95LPuhCvYkLJTaY-0" value="开始" style="rounded=0;whiteSpace=wrap;html=1;" parent="n50_d16GfCH-7NYCIRMe-1" vertex="1">
          <mxGeometry x="175" y="120" width="120" height="60" as="geometry" />
        </mxCell>
        <mxCell id="e7zCo95LPuhCvYkLJTaY-4" value="" style="edgeStyle=orthogonalEdgeStyle;rounded=0;orthogonalLoop=1;jettySize=auto;html=1;" parent="n50_d16GfCH-7NYCIRMe-1" source="e7zCo95LPuhCvYkLJTaY-1" target="e7zCo95LPuhCvYkLJTaY-3" edge="1">
          <mxGeometry relative="1" as="geometry" />
        </mxCell>
        <mxCell id="e7zCo95LPuhCvYkLJTaY-1" value="获取正在使用的ID或Cfg存储sector" style="rounded=1;whiteSpace=wrap;html=1;" parent="n50_d16GfCH-7NYCIRMe-1" vertex="1">
          <mxGeometry x="175" y="220" width="120" height="60" as="geometry" />
        </mxCell>
        <mxCell id="e7zCo95LPuhCvYkLJTaY-6" value="" style="edgeStyle=orthogonalEdgeStyle;rounded=0;orthogonalLoop=1;jettySize=auto;html=1;" parent="n50_d16GfCH-7NYCIRMe-1" source="e7zCo95LPuhCvYkLJTaY-3" target="e7zCo95LPuhCvYkLJTaY-5" edge="1">
          <mxGeometry relative="1" as="geometry" />
        </mxCell>
        <mxCell id="e7zCo95LPuhCvYkLJTaY-3" value="遍历整个sector，确认&lt;br&gt;空闲的block" style="rounded=1;whiteSpace=wrap;html=1;" parent="n50_d16GfCH-7NYCIRMe-1" vertex="1">
          <mxGeometry x="175" y="320" width="120" height="60" as="geometry" />
        </mxCell>
        <mxCell id="e7zCo95LPuhCvYkLJTaY-8" value="" style="edgeStyle=orthogonalEdgeStyle;rounded=0;orthogonalLoop=1;jettySize=auto;html=1;entryX=0.5;entryY=0;entryDx=0;entryDy=0;" parent="n50_d16GfCH-7NYCIRMe-1" source="e7zCo95LPuhCvYkLJTaY-5" target="Q2uw357Won9p834NOLiW-2" edge="1">
          <mxGeometry relative="1" as="geometry" />
        </mxCell>
        <mxCell id="e7zCo95LPuhCvYkLJTaY-5" value="往block写ID或cfg信息" style="rounded=1;whiteSpace=wrap;html=1;" parent="n50_d16GfCH-7NYCIRMe-1" vertex="1">
          <mxGeometry x="175" y="430" width="120" height="60" as="geometry" />
        </mxCell>
        <mxCell id="Q2uw357Won9p834NOLiW-7" style="edgeStyle=orthogonalEdgeStyle;rounded=0;orthogonalLoop=1;jettySize=auto;html=1;exitX=0.5;exitY=1;exitDx=0;exitDy=0;entryX=0.5;entryY=0;entryDx=0;entryDy=0;" parent="n50_d16GfCH-7NYCIRMe-1" source="e7zCo95LPuhCvYkLJTaY-7" target="Q2uw357Won9p834NOLiW-5" edge="1">
          <mxGeometry relative="1" as="geometry" />
        </mxCell>
        <mxCell id="e7zCo95LPuhCvYkLJTaY-7" value="切换区域，保存地址信息，并将旧的区只擦除态" style="whiteSpace=wrap;html=1;rounded=1;" parent="n50_d16GfCH-7NYCIRMe-1" vertex="1">
          <mxGeometry x="175" y="770" width="120" height="90" as="geometry" />
        </mxCell>
        <mxCell id="e7zCo95LPuhCvYkLJTaY-9" value="" style="edgeStyle=orthogonalEdgeStyle;rounded=0;orthogonalLoop=1;jettySize=auto;html=1;" parent="n50_d16GfCH-7NYCIRMe-1" source="e7zCo95LPuhCvYkLJTaY-10" target="e7zCo95LPuhCvYkLJTaY-12" edge="1">
          <mxGeometry relative="1" as="geometry" />
        </mxCell>
        <mxCell id="e7zCo95LPuhCvYkLJTaY-10" value="开始" style="rounded=0;whiteSpace=wrap;html=1;" parent="n50_d16GfCH-7NYCIRMe-1" vertex="1">
          <mxGeometry x="505" y="120" width="120" height="60" as="geometry" />
        </mxCell>
        <mxCell id="e7zCo95LPuhCvYkLJTaY-11" value="" style="edgeStyle=orthogonalEdgeStyle;rounded=0;orthogonalLoop=1;jettySize=auto;html=1;" parent="n50_d16GfCH-7NYCIRMe-1" source="e7zCo95LPuhCvYkLJTaY-12" target="e7zCo95LPuhCvYkLJTaY-14" edge="1">
          <mxGeometry relative="1" as="geometry" />
        </mxCell>
        <mxCell id="e7zCo95LPuhCvYkLJTaY-12" value="获取正在使用的ID或Cfg存储sector" style="rounded=1;whiteSpace=wrap;html=1;" parent="n50_d16GfCH-7NYCIRMe-1" vertex="1">
          <mxGeometry x="505" y="220" width="120" height="60" as="geometry" />
        </mxCell>
        <mxCell id="e7zCo95LPuhCvYkLJTaY-13" value="" style="edgeStyle=orthogonalEdgeStyle;rounded=0;orthogonalLoop=1;jettySize=auto;html=1;" parent="n50_d16GfCH-7NYCIRMe-1" source="e7zCo95LPuhCvYkLJTaY-14" target="e7zCo95LPuhCvYkLJTaY-16" edge="1">
          <mxGeometry relative="1" as="geometry" />
        </mxCell>
        <mxCell id="e7zCo95LPuhCvYkLJTaY-14" value="遍历整个sector，确认&lt;br&gt;最新的block" style="rounded=1;whiteSpace=wrap;html=1;" parent="n50_d16GfCH-7NYCIRMe-1" vertex="1">
          <mxGeometry x="505" y="320" width="120" height="60" as="geometry" />
        </mxCell>
        <mxCell id="Q2uw357Won9p834NOLiW-15" style="edgeStyle=orthogonalEdgeStyle;rounded=0;orthogonalLoop=1;jettySize=auto;html=1;exitX=0.5;exitY=1;exitDx=0;exitDy=0;entryX=0.5;entryY=0;entryDx=0;entryDy=0;" parent="n50_d16GfCH-7NYCIRMe-1" source="e7zCo95LPuhCvYkLJTaY-16" target="Q2uw357Won9p834NOLiW-13" edge="1">
          <mxGeometry relative="1" as="geometry" />
        </mxCell>
        <mxCell id="e7zCo95LPuhCvYkLJTaY-16" value="从block读ID或cfg信息" style="rounded=1;whiteSpace=wrap;html=1;" parent="n50_d16GfCH-7NYCIRMe-1" vertex="1">
          <mxGeometry x="505" y="430" width="120" height="60" as="geometry" />
        </mxCell>
        <mxCell id="Q2uw357Won9p834NOLiW-3" value="" style="edgeStyle=orthogonalEdgeStyle;rounded=0;orthogonalLoop=1;jettySize=auto;html=1;" parent="n50_d16GfCH-7NYCIRMe-1" source="Q2uw357Won9p834NOLiW-2" target="e7zCo95LPuhCvYkLJTaY-7" edge="1">
          <mxGeometry relative="1" as="geometry" />
        </mxCell>
        <mxCell id="Q2uw357Won9p834NOLiW-4" value="Y" style="edgeLabel;html=1;align=center;verticalAlign=middle;resizable=0;points=[];" parent="Q2uw357Won9p834NOLiW-3" vertex="1" connectable="0">
          <mxGeometry x="-0.8" relative="1" as="geometry">
            <mxPoint as="offset" />
          </mxGeometry>
        </mxCell>
        <mxCell id="Q2uw357Won9p834NOLiW-6" style="edgeStyle=orthogonalEdgeStyle;rounded=0;orthogonalLoop=1;jettySize=auto;html=1;exitX=1;exitY=0.5;exitDx=0;exitDy=0;entryX=1;entryY=0.5;entryDx=0;entryDy=0;" parent="n50_d16GfCH-7NYCIRMe-1" source="Q2uw357Won9p834NOLiW-2" target="Q2uw357Won9p834NOLiW-5" edge="1">
          <mxGeometry relative="1" as="geometry" />
        </mxCell>
        <mxCell id="Q2uw357Won9p834NOLiW-2" value="&lt;span&gt;判断是否需要进行区域切换&lt;/span&gt;" style="rhombus;whiteSpace=wrap;html=1;" parent="n50_d16GfCH-7NYCIRMe-1" vertex="1">
          <mxGeometry x="150" y="570" width="170" height="110" as="geometry" />
        </mxCell>
        <mxCell id="Q2uw357Won9p834NOLiW-5" value="结束" style="rounded=0;whiteSpace=wrap;html=1;" parent="n50_d16GfCH-7NYCIRMe-1" vertex="1">
          <mxGeometry x="175" y="950" width="120" height="60" as="geometry" />
        </mxCell>
        <mxCell id="Q2uw357Won9p834NOLiW-8" style="edgeStyle=orthogonalEdgeStyle;rounded=0;orthogonalLoop=1;jettySize=auto;html=1;exitX=0.5;exitY=1;exitDx=0;exitDy=0;entryX=0.5;entryY=0;entryDx=0;entryDy=0;" parent="n50_d16GfCH-7NYCIRMe-1" source="Q2uw357Won9p834NOLiW-9" target="Q2uw357Won9p834NOLiW-14" edge="1">
          <mxGeometry relative="1" as="geometry" />
        </mxCell>
        <mxCell id="Q2uw357Won9p834NOLiW-9" value="切换区域，保存地址信息，并将旧的区只擦除态" style="whiteSpace=wrap;html=1;rounded=1;" parent="n50_d16GfCH-7NYCIRMe-1" vertex="1">
          <mxGeometry x="505" y="760" width="120" height="90" as="geometry" />
        </mxCell>
        <mxCell id="Q2uw357Won9p834NOLiW-10" value="" style="edgeStyle=orthogonalEdgeStyle;rounded=0;orthogonalLoop=1;jettySize=auto;html=1;" parent="n50_d16GfCH-7NYCIRMe-1" source="Q2uw357Won9p834NOLiW-13" target="Q2uw357Won9p834NOLiW-9" edge="1">
          <mxGeometry relative="1" as="geometry" />
        </mxCell>
        <mxCell id="Q2uw357Won9p834NOLiW-11" value="Y" style="edgeLabel;html=1;align=center;verticalAlign=middle;resizable=0;points=[];" parent="Q2uw357Won9p834NOLiW-10" vertex="1" connectable="0">
          <mxGeometry x="-0.8" relative="1" as="geometry">
            <mxPoint as="offset" />
          </mxGeometry>
        </mxCell>
        <mxCell id="Q2uw357Won9p834NOLiW-12" style="edgeStyle=orthogonalEdgeStyle;rounded=0;orthogonalLoop=1;jettySize=auto;html=1;exitX=1;exitY=0.5;exitDx=0;exitDy=0;entryX=1;entryY=0.5;entryDx=0;entryDy=0;" parent="n50_d16GfCH-7NYCIRMe-1" source="Q2uw357Won9p834NOLiW-13" target="Q2uw357Won9p834NOLiW-14" edge="1">
          <mxGeometry relative="1" as="geometry" />
        </mxCell>
        <mxCell id="Q2uw357Won9p834NOLiW-13" value="&lt;span&gt;判断是否需要进行区域切换&lt;/span&gt;" style="rhombus;whiteSpace=wrap;html=1;" parent="n50_d16GfCH-7NYCIRMe-1" vertex="1">
          <mxGeometry x="480" y="580" width="170" height="110" as="geometry" />
        </mxCell>
        <mxCell id="Q2uw357Won9p834NOLiW-14" value="结束" style="rounded=0;whiteSpace=wrap;html=1;" parent="n50_d16GfCH-7NYCIRMe-1" vertex="1">
          <mxGeometry x="505" y="940" width="120" height="60" as="geometry" />
        </mxCell>
        <mxCell id="pa7Pt3TBaSEtxNlSfGvR-0" value="&lt;font style=&quot;font-size: 24px&quot;&gt;ID和Cfg存储和读取流程图&lt;/font&gt;" style="text;html=1;strokeColor=none;fillColor=none;align=center;verticalAlign=middle;whiteSpace=wrap;rounded=0;" parent="n50_d16GfCH-7NYCIRMe-1" vertex="1">
          <mxGeometry x="55" y="20" width="285" height="30" as="geometry" />
        </mxCell>
      </root>
    </mxGraphModel>
  </diagram>
  <diagram id="uTvy2EQwijA_bZcyDde-" name="第 3 页">
    <mxGraphModel dx="1422" dy="762" grid="1" gridSize="10" guides="1" tooltips="1" connect="1" arrows="1" fold="1" page="1" pageScale="1" pageWidth="827" pageHeight="1169" math="0" shadow="0">
      <root>
        <mxCell id="fnqqHqIh86q1_Osp9XYR-0" />
        <mxCell id="fnqqHqIh86q1_Osp9XYR-1" parent="fnqqHqIh86q1_Osp9XYR-0" />
        <mxCell id="fnqqHqIh86q1_Osp9XYR-4" value="" style="edgeStyle=orthogonalEdgeStyle;rounded=0;orthogonalLoop=1;jettySize=auto;html=1;" parent="fnqqHqIh86q1_Osp9XYR-1" source="fnqqHqIh86q1_Osp9XYR-2" edge="1">
          <mxGeometry relative="1" as="geometry">
            <mxPoint x="380" y="180" as="targetPoint" />
          </mxGeometry>
        </mxCell>
        <mxCell id="fnqqHqIh86q1_Osp9XYR-2" value="&lt;font style=&quot;font-size: 14px&quot;&gt;开始&lt;/font&gt;" style="rounded=0;whiteSpace=wrap;html=1;" parent="fnqqHqIh86q1_Osp9XYR-1" vertex="1">
          <mxGeometry x="320" y="80" width="120" height="60" as="geometry" />
        </mxCell>
        <mxCell id="fnqqHqIh86q1_Osp9XYR-7" value="" style="edgeStyle=orthogonalEdgeStyle;rounded=0;orthogonalLoop=1;jettySize=auto;html=1;" parent="fnqqHqIh86q1_Osp9XYR-1" source="fnqqHqIh86q1_Osp9XYR-5" edge="1">
          <mxGeometry relative="1" as="geometry">
            <mxPoint x="380" y="320" as="targetPoint" />
          </mxGeometry>
        </mxCell>
        <mxCell id="fnqqHqIh86q1_Osp9XYR-8" value="Y" style="edgeLabel;html=1;align=center;verticalAlign=middle;resizable=0;points=[];" parent="fnqqHqIh86q1_Osp9XYR-7" vertex="1" connectable="0">
          <mxGeometry x="-0.7571" y="1" relative="1" as="geometry">
            <mxPoint as="offset" />
          </mxGeometry>
        </mxCell>
        <mxCell id="fnqqHqIh86q1_Osp9XYR-14" style="edgeStyle=orthogonalEdgeStyle;rounded=0;orthogonalLoop=1;jettySize=auto;html=1;exitX=0;exitY=0.5;exitDx=0;exitDy=0;entryX=0.5;entryY=1;entryDx=0;entryDy=0;" parent="fnqqHqIh86q1_Osp9XYR-1" source="fnqqHqIh86q1_Osp9XYR-5" target="fnqqHqIh86q1_Osp9XYR-5" edge="1">
          <mxGeometry relative="1" as="geometry">
            <mxPoint x="390" y="160" as="targetPoint" />
            <Array as="points">
              <mxPoint x="520" y="220" />
              <mxPoint x="520" y="160" />
              <mxPoint x="380" y="160" />
            </Array>
          </mxGeometry>
        </mxCell>
        <mxCell id="fnqqHqIh86q1_Osp9XYR-15" value="N" style="edgeLabel;html=1;align=center;verticalAlign=middle;resizable=0;points=[];" parent="fnqqHqIh86q1_Osp9XYR-14" vertex="1" connectable="0">
          <mxGeometry x="-0.8723" relative="1" as="geometry">
            <mxPoint as="offset" />
          </mxGeometry>
        </mxCell>
        <mxCell id="fnqqHqIh86q1_Osp9XYR-5" value="判断擦写状态是否被置1？" style="rhombus;whiteSpace=wrap;html=1;direction=west;fontStyle=1" parent="fnqqHqIh86q1_Osp9XYR-1" vertex="1">
          <mxGeometry x="295" y="180" width="170" height="80" as="geometry" />
        </mxCell>
        <mxCell id="fnqqHqIh86q1_Osp9XYR-11" value="" style="edgeStyle=orthogonalEdgeStyle;rounded=0;orthogonalLoop=1;jettySize=auto;html=1;" parent="fnqqHqIh86q1_Osp9XYR-1" source="fnqqHqIh86q1_Osp9XYR-9" edge="1">
          <mxGeometry relative="1" as="geometry">
            <mxPoint x="380" y="440" as="targetPoint" />
          </mxGeometry>
        </mxCell>
        <mxCell id="fnqqHqIh86q1_Osp9XYR-12" value="Y" style="edgeLabel;html=1;align=center;verticalAlign=middle;resizable=0;points=[];" parent="fnqqHqIh86q1_Osp9XYR-11" vertex="1" connectable="0">
          <mxGeometry x="-0.696" y="1" relative="1" as="geometry">
            <mxPoint as="offset" />
          </mxGeometry>
        </mxCell>
        <mxCell id="fnqqHqIh86q1_Osp9XYR-16" style="edgeStyle=orthogonalEdgeStyle;rounded=0;orthogonalLoop=1;jettySize=auto;html=1;exitX=0;exitY=0.5;exitDx=0;exitDy=0;entryX=1;entryY=0.5;entryDx=0;entryDy=0;" parent="fnqqHqIh86q1_Osp9XYR-1" source="fnqqHqIh86q1_Osp9XYR-9" target="fnqqHqIh86q1_Osp9XYR-21" edge="1">
          <mxGeometry relative="1" as="geometry">
            <mxPoint x="450" y="610" as="targetPoint" />
            <Array as="points">
              <mxPoint x="560" y="360" />
              <mxPoint x="560" y="600" />
            </Array>
          </mxGeometry>
        </mxCell>
        <mxCell id="fnqqHqIh86q1_Osp9XYR-17" value="N" style="edgeLabel;html=1;align=center;verticalAlign=middle;resizable=0;points=[];" parent="fnqqHqIh86q1_Osp9XYR-16" vertex="1" connectable="0">
          <mxGeometry x="-0.92" relative="1" as="geometry">
            <mxPoint as="offset" />
          </mxGeometry>
        </mxCell>
        <mxCell id="fnqqHqIh86q1_Osp9XYR-9" value="判断是否处于连接状态？" style="rhombus;whiteSpace=wrap;html=1;direction=west;" parent="fnqqHqIh86q1_Osp9XYR-1" vertex="1">
          <mxGeometry x="295" y="320" width="170" height="80" as="geometry" />
        </mxCell>
        <mxCell id="fnqqHqIh86q1_Osp9XYR-20" style="edgeStyle=orthogonalEdgeStyle;rounded=0;orthogonalLoop=1;jettySize=auto;html=1;exitX=0.5;exitY=0;exitDx=0;exitDy=0;entryX=0.5;entryY=0;entryDx=0;entryDy=0;" parent="fnqqHqIh86q1_Osp9XYR-1" source="fnqqHqIh86q1_Osp9XYR-13" target="fnqqHqIh86q1_Osp9XYR-21" edge="1">
          <mxGeometry relative="1" as="geometry">
            <mxPoint x="380" y="580" as="targetPoint" />
            <Array as="points" />
          </mxGeometry>
        </mxCell>
        <mxCell id="fnqqHqIh86q1_Osp9XYR-29" value="Y" style="edgeLabel;html=1;align=center;verticalAlign=middle;resizable=0;points=[];" parent="fnqqHqIh86q1_Osp9XYR-20" vertex="1" connectable="0">
          <mxGeometry x="-0.6571" relative="1" as="geometry">
            <mxPoint as="offset" />
          </mxGeometry>
        </mxCell>
        <mxCell id="fnqqHqIh86q1_Osp9XYR-13" value="正在使用的sector剩余值&lt;br&gt;是否小于门限值？" style="rhombus;whiteSpace=wrap;html=1;direction=west;" parent="fnqqHqIh86q1_Osp9XYR-1" vertex="1">
          <mxGeometry x="295" y="440" width="170" height="100" as="geometry" />
        </mxCell>
        <mxCell id="fnqqHqIh86q1_Osp9XYR-18" style="edgeStyle=orthogonalEdgeStyle;rounded=0;orthogonalLoop=1;jettySize=auto;html=1;exitX=0;exitY=0.5;exitDx=0;exitDy=0;entryX=0.5;entryY=1;entryDx=0;entryDy=0;" parent="fnqqHqIh86q1_Osp9XYR-1" source="fnqqHqIh86q1_Osp9XYR-13" target="fnqqHqIh86q1_Osp9XYR-13" edge="1">
          <mxGeometry relative="1" as="geometry">
            <Array as="points">
              <mxPoint x="520" y="490" />
              <mxPoint x="520" y="420" />
              <mxPoint x="380" y="420" />
            </Array>
          </mxGeometry>
        </mxCell>
        <mxCell id="fnqqHqIh86q1_Osp9XYR-19" value="N" style="edgeLabel;html=1;align=center;verticalAlign=middle;resizable=0;points=[];" parent="fnqqHqIh86q1_Osp9XYR-18" vertex="1" connectable="0">
          <mxGeometry x="-0.9158" relative="1" as="geometry">
            <mxPoint as="offset" />
          </mxGeometry>
        </mxCell>
        <mxCell id="fnqqHqIh86q1_Osp9XYR-28" value="" style="edgeStyle=orthogonalEdgeStyle;rounded=0;orthogonalLoop=1;jettySize=auto;html=1;" parent="fnqqHqIh86q1_Osp9XYR-1" source="fnqqHqIh86q1_Osp9XYR-21" target="fnqqHqIh86q1_Osp9XYR-27" edge="1">
          <mxGeometry relative="1" as="geometry" />
        </mxCell>
        <mxCell id="fnqqHqIh86q1_Osp9XYR-21" value="擦除所需擦除的sector" style="rounded=1;whiteSpace=wrap;html=1;" parent="fnqqHqIh86q1_Osp9XYR-1" vertex="1">
          <mxGeometry x="320" y="570" width="120" height="60" as="geometry" />
        </mxCell>
        <mxCell id="fnqqHqIh86q1_Osp9XYR-27" value="结束" style="rounded=0;whiteSpace=wrap;html=1;" parent="fnqqHqIh86q1_Osp9XYR-1" vertex="1">
          <mxGeometry x="320" y="660" width="120" height="60" as="geometry" />
        </mxCell>
        <mxCell id="fnqqHqIh86q1_Osp9XYR-30" value="&lt;font style=&quot;font-size: 24px&quot;&gt;sector擦除流程图&lt;/font&gt;" style="text;html=1;strokeColor=none;fillColor=none;align=center;verticalAlign=middle;whiteSpace=wrap;rounded=0;" parent="fnqqHqIh86q1_Osp9XYR-1" vertex="1">
          <mxGeometry x="40" y="10" width="200" height="40" as="geometry" />
        </mxCell>
      </root>
    </mxGraphModel>
  </diagram>
  <diagram id="FbGuMQOQjZQ5y4SIsKRZ" name="第 4 页">
    <mxGraphModel dx="1422" dy="762" grid="1" gridSize="10" guides="1" tooltips="1" connect="1" arrows="1" fold="1" page="1" pageScale="1" pageWidth="827" pageHeight="1169" math="0" shadow="0">
      <root>
        <mxCell id="soPAVjkGdA2e4Ogfdyem-0" />
        <mxCell id="soPAVjkGdA2e4Ogfdyem-1" parent="soPAVjkGdA2e4Ogfdyem-0" />
        <mxCell id="soPAVjkGdA2e4Ogfdyem-4" value="" style="edgeStyle=orthogonalEdgeStyle;rounded=0;orthogonalLoop=1;jettySize=auto;html=1;" parent="soPAVjkGdA2e4Ogfdyem-1" source="soPAVjkGdA2e4Ogfdyem-2" target="soPAVjkGdA2e4Ogfdyem-3" edge="1">
          <mxGeometry relative="1" as="geometry" />
        </mxCell>
        <mxCell id="soPAVjkGdA2e4Ogfdyem-2" value="&lt;font style=&quot;font-size: 18px&quot;&gt;开始&lt;/font&gt;" style="rounded=0;whiteSpace=wrap;html=1;" parent="soPAVjkGdA2e4Ogfdyem-1" vertex="1">
          <mxGeometry x="360" y="80" width="120" height="60" as="geometry" />
        </mxCell>
        <mxCell id="soPAVjkGdA2e4Ogfdyem-6" value="" style="edgeStyle=orthogonalEdgeStyle;rounded=0;orthogonalLoop=1;jettySize=auto;html=1;" parent="soPAVjkGdA2e4Ogfdyem-1" source="soPAVjkGdA2e4Ogfdyem-3" edge="1">
          <mxGeometry relative="1" as="geometry">
            <mxPoint x="420" y="309.9999999999998" as="targetPoint" />
          </mxGeometry>
        </mxCell>
        <mxCell id="soPAVjkGdA2e4Ogfdyem-3" value="&lt;font style=&quot;font-size: 14px&quot;&gt;设置初始读地址为&lt;br&gt;STA A存储区&lt;/font&gt;" style="rounded=1;whiteSpace=wrap;html=1;" parent="soPAVjkGdA2e4Ogfdyem-1" vertex="1">
          <mxGeometry x="360" y="190" width="120" height="60" as="geometry" />
        </mxCell>
        <mxCell id="soPAVjkGdA2e4Ogfdyem-9" value="" style="edgeStyle=orthogonalEdgeStyle;rounded=0;orthogonalLoop=1;jettySize=auto;html=1;" parent="soPAVjkGdA2e4Ogfdyem-1" source="soPAVjkGdA2e4Ogfdyem-7" target="soPAVjkGdA2e4Ogfdyem-11" edge="1">
          <mxGeometry relative="1" as="geometry">
            <mxPoint x="420" y="450" as="targetPoint" />
          </mxGeometry>
        </mxCell>
        <mxCell id="soPAVjkGdA2e4Ogfdyem-10" value="Y" style="edgeLabel;html=1;align=center;verticalAlign=middle;resizable=0;points=[];" parent="soPAVjkGdA2e4Ogfdyem-9" vertex="1" connectable="0">
          <mxGeometry x="-0.824" y="-3" relative="1" as="geometry">
            <mxPoint as="offset" />
          </mxGeometry>
        </mxCell>
        <mxCell id="soPAVjkGdA2e4Ogfdyem-15" style="edgeStyle=orthogonalEdgeStyle;rounded=0;orthogonalLoop=1;jettySize=auto;html=1;exitX=1;exitY=0.5;exitDx=0;exitDy=0;" parent="soPAVjkGdA2e4Ogfdyem-1" source="soPAVjkGdA2e4Ogfdyem-7" edge="1">
          <mxGeometry relative="1" as="geometry">
            <mxPoint x="680" y="570" as="targetPoint" />
            <Array as="points">
              <mxPoint x="680" y="355" />
            </Array>
          </mxGeometry>
        </mxCell>
        <mxCell id="soPAVjkGdA2e4Ogfdyem-19" value="N" style="edgeLabel;html=1;align=center;verticalAlign=middle;resizable=0;points=[];" parent="soPAVjkGdA2e4Ogfdyem-15" vertex="1" connectable="0">
          <mxGeometry x="-0.9013" relative="1" as="geometry">
            <mxPoint as="offset" />
          </mxGeometry>
        </mxCell>
        <mxCell id="soPAVjkGdA2e4Ogfdyem-7" value="&lt;font style=&quot;font-size: 14px&quot;&gt;读取STA A首地址&lt;br&gt;是否为空？&lt;/font&gt;" style="rhombus;whiteSpace=wrap;html=1;" parent="soPAVjkGdA2e4Ogfdyem-1" vertex="1">
          <mxGeometry x="330" y="310" width="180" height="90" as="geometry" />
        </mxCell>
        <mxCell id="soPAVjkGdA2e4Ogfdyem-13" style="edgeStyle=orthogonalEdgeStyle;rounded=0;orthogonalLoop=1;jettySize=auto;html=1;exitX=0.5;exitY=1;exitDx=0;exitDy=0;" parent="soPAVjkGdA2e4Ogfdyem-1" source="soPAVjkGdA2e4Ogfdyem-11" target="soPAVjkGdA2e4Ogfdyem-12" edge="1">
          <mxGeometry relative="1" as="geometry">
            <Array as="points">
              <mxPoint x="420" y="560" />
              <mxPoint x="420" y="560" />
            </Array>
          </mxGeometry>
        </mxCell>
        <mxCell id="soPAVjkGdA2e4Ogfdyem-14" value="Y" style="edgeLabel;html=1;align=center;verticalAlign=middle;resizable=0;points=[];" parent="soPAVjkGdA2e4Ogfdyem-13" vertex="1" connectable="0">
          <mxGeometry x="-0.7778" y="-1" relative="1" as="geometry">
            <mxPoint as="offset" />
          </mxGeometry>
        </mxCell>
        <mxCell id="soPAVjkGdA2e4Ogfdyem-17" style="edgeStyle=orthogonalEdgeStyle;rounded=0;orthogonalLoop=1;jettySize=auto;html=1;exitX=1;exitY=0.5;exitDx=0;exitDy=0;entryX=0.5;entryY=0;entryDx=0;entryDy=0;" parent="soPAVjkGdA2e4Ogfdyem-1" source="soPAVjkGdA2e4Ogfdyem-11" target="soPAVjkGdA2e4Ogfdyem-16" edge="1">
          <mxGeometry relative="1" as="geometry" />
        </mxCell>
        <mxCell id="soPAVjkGdA2e4Ogfdyem-18" value="N" style="edgeLabel;html=1;align=center;verticalAlign=middle;resizable=0;points=[];" parent="soPAVjkGdA2e4Ogfdyem-17" vertex="1" connectable="0">
          <mxGeometry x="-0.8122" relative="1" as="geometry">
            <mxPoint as="offset" />
          </mxGeometry>
        </mxCell>
        <mxCell id="soPAVjkGdA2e4Ogfdyem-11" value="&lt;font style=&quot;font-size: 14px&quot;&gt;读取STA B首地址&lt;br&gt;是否为空？&lt;/font&gt;" style="rhombus;whiteSpace=wrap;html=1;" parent="soPAVjkGdA2e4Ogfdyem-1" vertex="1">
          <mxGeometry x="330" y="450" width="180" height="90" as="geometry" />
        </mxCell>
        <mxCell id="soPAVjkGdA2e4Ogfdyem-21" value="" style="edgeStyle=orthogonalEdgeStyle;rounded=0;orthogonalLoop=1;jettySize=auto;html=1;" parent="soPAVjkGdA2e4Ogfdyem-1" source="soPAVjkGdA2e4Ogfdyem-12" target="soPAVjkGdA2e4Ogfdyem-20" edge="1">
          <mxGeometry relative="1" as="geometry" />
        </mxCell>
        <mxCell id="soPAVjkGdA2e4Ogfdyem-12" value="初始化RAM和flash上的使用的存储地址" style="rounded=1;whiteSpace=wrap;html=1;" parent="soPAVjkGdA2e4Ogfdyem-1" vertex="1">
          <mxGeometry x="360" y="585" width="120" height="60" as="geometry" />
        </mxCell>
        <mxCell id="soPAVjkGdA2e4Ogfdyem-22" style="edgeStyle=orthogonalEdgeStyle;rounded=0;orthogonalLoop=1;jettySize=auto;html=1;exitX=0.5;exitY=1;exitDx=0;exitDy=0;" parent="soPAVjkGdA2e4Ogfdyem-1" source="soPAVjkGdA2e4Ogfdyem-16" target="soPAVjkGdA2e4Ogfdyem-20" edge="1">
          <mxGeometry relative="1" as="geometry" />
        </mxCell>
        <mxCell id="soPAVjkGdA2e4Ogfdyem-16" value="从flash读数据并初始化RAM上的存储地址" style="rounded=1;whiteSpace=wrap;html=1;" parent="soPAVjkGdA2e4Ogfdyem-1" vertex="1">
          <mxGeometry x="620" y="585" width="120" height="60" as="geometry" />
        </mxCell>
        <mxCell id="soPAVjkGdA2e4Ogfdyem-20" value="&lt;font style=&quot;font-size: 18px&quot;&gt;结束&lt;/font&gt;" style="rounded=0;whiteSpace=wrap;html=1;" parent="soPAVjkGdA2e4Ogfdyem-1" vertex="1">
          <mxGeometry x="360" y="690" width="120" height="60" as="geometry" />
        </mxCell>
      </root>
    </mxGraphModel>
  </diagram>
  <diagram id="drSm37vnPOQYdN56eyL_" name="Page-5">
    <mxGraphModel dx="1393" dy="762" grid="1" gridSize="10" guides="1" tooltips="1" connect="1" arrows="1" fold="1" page="1" pageScale="1" pageWidth="827" pageHeight="1169" math="0" shadow="0">
      <root>
        <mxCell id="0k5CihilNW5hbGHIhJcL-0" />
        <mxCell id="0k5CihilNW5hbGHIhJcL-1" parent="0k5CihilNW5hbGHIhJcL-0" />
        <mxCell id="0k5CihilNW5hbGHIhJcL-16" style="edgeStyle=orthogonalEdgeStyle;rounded=0;orthogonalLoop=1;jettySize=auto;html=1;exitX=0.5;exitY=1;exitDx=0;exitDy=0;entryX=0.5;entryY=0;entryDx=0;entryDy=0;" edge="1" parent="0k5CihilNW5hbGHIhJcL-1" source="0k5CihilNW5hbGHIhJcL-6" target="0k5CihilNW5hbGHIhJcL-7">
          <mxGeometry relative="1" as="geometry" />
        </mxCell>
        <mxCell id="0k5CihilNW5hbGHIhJcL-6" value="&lt;font style=&quot;font-size: 18px&quot;&gt;开始&lt;/font&gt;" style="rounded=0;whiteSpace=wrap;html=1;" vertex="1" parent="0k5CihilNW5hbGHIhJcL-1">
          <mxGeometry x="182.5" y="80" width="120" height="60" as="geometry" />
        </mxCell>
        <mxCell id="0k5CihilNW5hbGHIhJcL-12" style="edgeStyle=orthogonalEdgeStyle;rounded=0;orthogonalLoop=1;jettySize=auto;html=1;exitX=0.5;exitY=1;exitDx=0;exitDy=0;entryX=0.5;entryY=0;entryDx=0;entryDy=0;" edge="1" parent="0k5CihilNW5hbGHIhJcL-1" source="0k5CihilNW5hbGHIhJcL-7" target="0k5CihilNW5hbGHIhJcL-8">
          <mxGeometry relative="1" as="geometry" />
        </mxCell>
        <mxCell id="0k5CihilNW5hbGHIhJcL-7" value="获取正在使用的&lt;br&gt;确切地址" style="rounded=1;whiteSpace=wrap;html=1;" vertex="1" parent="0k5CihilNW5hbGHIhJcL-1">
          <mxGeometry x="182.5" y="180" width="120" height="60" as="geometry" />
        </mxCell>
        <mxCell id="0k5CihilNW5hbGHIhJcL-11" value="Y" style="edgeStyle=orthogonalEdgeStyle;rounded=0;orthogonalLoop=1;jettySize=auto;html=1;exitX=0.5;exitY=1;exitDx=0;exitDy=0;entryX=0.5;entryY=0;entryDx=0;entryDy=0;entryPerimeter=0;" edge="1" parent="0k5CihilNW5hbGHIhJcL-1" source="0k5CihilNW5hbGHIhJcL-8" target="0k5CihilNW5hbGHIhJcL-13">
          <mxGeometry relative="1" as="geometry">
            <mxPoint x="242.5" y="380" as="targetPoint" />
          </mxGeometry>
        </mxCell>
        <mxCell id="0k5CihilNW5hbGHIhJcL-51" style="edgeStyle=orthogonalEdgeStyle;rounded=0;orthogonalLoop=1;jettySize=auto;html=1;" edge="1" parent="0k5CihilNW5hbGHIhJcL-1" source="0k5CihilNW5hbGHIhJcL-8">
          <mxGeometry relative="1" as="geometry">
            <mxPoint x="600" y="305" as="targetPoint" />
          </mxGeometry>
        </mxCell>
        <mxCell id="0k5CihilNW5hbGHIhJcL-52" value="N" style="edgeLabel;html=1;align=center;verticalAlign=middle;resizable=0;points=[];" vertex="1" connectable="0" parent="0k5CihilNW5hbGHIhJcL-51">
          <mxGeometry x="0.1043" y="1" relative="1" as="geometry">
            <mxPoint as="offset" />
          </mxGeometry>
        </mxCell>
        <mxCell id="0k5CihilNW5hbGHIhJcL-8" value="判断获取的地址&lt;br&gt;是否有效？" style="rhombus;whiteSpace=wrap;html=1;" vertex="1" parent="0k5CihilNW5hbGHIhJcL-1">
          <mxGeometry x="177.5" y="270" width="130" height="70" as="geometry" />
        </mxCell>
        <mxCell id="0k5CihilNW5hbGHIhJcL-9" value="reset该存储区" style="rounded=1;whiteSpace=wrap;html=1;" vertex="1" parent="0k5CihilNW5hbGHIhJcL-1">
          <mxGeometry x="602.5" y="275" width="120" height="60" as="geometry" />
        </mxCell>
        <mxCell id="0k5CihilNW5hbGHIhJcL-15" value="Y" style="edgeStyle=orthogonalEdgeStyle;rounded=0;orthogonalLoop=1;jettySize=auto;html=1;exitX=0.5;exitY=1;exitDx=0;exitDy=0;" edge="1" parent="0k5CihilNW5hbGHIhJcL-1" source="0k5CihilNW5hbGHIhJcL-13" target="0k5CihilNW5hbGHIhJcL-14">
          <mxGeometry relative="1" as="geometry" />
        </mxCell>
        <mxCell id="0k5CihilNW5hbGHIhJcL-48" value="N" style="edgeStyle=orthogonalEdgeStyle;rounded=0;orthogonalLoop=1;jettySize=auto;html=1;" edge="1" parent="0k5CihilNW5hbGHIhJcL-1" source="0k5CihilNW5hbGHIhJcL-13" target="0k5CihilNW5hbGHIhJcL-23">
          <mxGeometry relative="1" as="geometry" />
        </mxCell>
        <mxCell id="0k5CihilNW5hbGHIhJcL-13" value="判断有效地址的&lt;br&gt;下个地址是否为空？" style="rhombus;whiteSpace=wrap;html=1;" vertex="1" parent="0k5CihilNW5hbGHIhJcL-1">
          <mxGeometry x="170" y="370" width="145" height="80" as="geometry" />
        </mxCell>
        <mxCell id="0k5CihilNW5hbGHIhJcL-18" value="" style="edgeStyle=orthogonalEdgeStyle;rounded=0;orthogonalLoop=1;jettySize=auto;html=1;" edge="1" parent="0k5CihilNW5hbGHIhJcL-1" source="0k5CihilNW5hbGHIhJcL-14" target="0k5CihilNW5hbGHIhJcL-17">
          <mxGeometry relative="1" as="geometry" />
        </mxCell>
        <mxCell id="0k5CihilNW5hbGHIhJcL-14" value="读取flash上的内容并&lt;br&gt;校验" style="rounded=1;whiteSpace=wrap;html=1;" vertex="1" parent="0k5CihilNW5hbGHIhJcL-1">
          <mxGeometry x="182.5" y="490" width="120" height="60" as="geometry" />
        </mxCell>
        <mxCell id="0k5CihilNW5hbGHIhJcL-20" value="Y" style="edgeStyle=orthogonalEdgeStyle;rounded=0;orthogonalLoop=1;jettySize=auto;html=1;" edge="1" parent="0k5CihilNW5hbGHIhJcL-1" source="0k5CihilNW5hbGHIhJcL-17" target="0k5CihilNW5hbGHIhJcL-19">
          <mxGeometry relative="1" as="geometry" />
        </mxCell>
        <mxCell id="0k5CihilNW5hbGHIhJcL-44" style="edgeStyle=orthogonalEdgeStyle;rounded=0;orthogonalLoop=1;jettySize=auto;html=1;entryX=0.5;entryY=0;entryDx=0;entryDy=0;" edge="1" parent="0k5CihilNW5hbGHIhJcL-1" source="0k5CihilNW5hbGHIhJcL-17" target="0k5CihilNW5hbGHIhJcL-41">
          <mxGeometry relative="1" as="geometry" />
        </mxCell>
        <mxCell id="0k5CihilNW5hbGHIhJcL-17" value="校验是否成功？" style="rhombus;whiteSpace=wrap;html=1;" vertex="1" parent="0k5CihilNW5hbGHIhJcL-1">
          <mxGeometry x="182.5" y="590" width="120" height="65" as="geometry" />
        </mxCell>
        <mxCell id="0k5CihilNW5hbGHIhJcL-19" value="完成读取" style="rounded=1;whiteSpace=wrap;html=1;" vertex="1" parent="0k5CihilNW5hbGHIhJcL-1">
          <mxGeometry x="182.5" y="1060" width="120" height="60" as="geometry" />
        </mxCell>
        <mxCell id="0k5CihilNW5hbGHIhJcL-49" style="edgeStyle=orthogonalEdgeStyle;rounded=0;orthogonalLoop=1;jettySize=auto;html=1;entryX=0.5;entryY=0;entryDx=0;entryDy=0;" edge="1" parent="0k5CihilNW5hbGHIhJcL-1" source="0k5CihilNW5hbGHIhJcL-23" target="0k5CihilNW5hbGHIhJcL-8">
          <mxGeometry relative="1" as="geometry">
            <Array as="points">
              <mxPoint x="80" y="270" />
            </Array>
          </mxGeometry>
        </mxCell>
        <mxCell id="0k5CihilNW5hbGHIhJcL-23" value="遍历找空地址" style="rounded=1;whiteSpace=wrap;html=1;" vertex="1" parent="0k5CihilNW5hbGHIhJcL-1">
          <mxGeometry x="20" y="380" width="120" height="60" as="geometry" />
        </mxCell>
        <mxCell id="0k5CihilNW5hbGHIhJcL-31" value="" style="edgeStyle=orthogonalEdgeStyle;rounded=0;orthogonalLoop=1;jettySize=auto;html=1;" edge="1" parent="0k5CihilNW5hbGHIhJcL-1" source="0k5CihilNW5hbGHIhJcL-32" target="0k5CihilNW5hbGHIhJcL-33">
          <mxGeometry relative="1" as="geometry" />
        </mxCell>
        <mxCell id="0k5CihilNW5hbGHIhJcL-32" value="读取flash上的内容并&lt;br&gt;校验" style="rounded=1;whiteSpace=wrap;html=1;" vertex="1" parent="0k5CihilNW5hbGHIhJcL-1">
          <mxGeometry x="512.5" y="850" width="120" height="60" as="geometry" />
        </mxCell>
        <mxCell id="0k5CihilNW5hbGHIhJcL-35" value="Y" style="edgeStyle=orthogonalEdgeStyle;rounded=0;orthogonalLoop=1;jettySize=auto;html=1;exitX=0.5;exitY=1;exitDx=0;exitDy=0;entryX=0.5;entryY=0;entryDx=0;entryDy=0;" edge="1" parent="0k5CihilNW5hbGHIhJcL-1" source="0k5CihilNW5hbGHIhJcL-33" target="0k5CihilNW5hbGHIhJcL-19">
          <mxGeometry relative="1" as="geometry">
            <mxPoint x="472.5" y="890" as="targetPoint" />
          </mxGeometry>
        </mxCell>
        <mxCell id="0k5CihilNW5hbGHIhJcL-46" value="N" style="edgeStyle=orthogonalEdgeStyle;rounded=0;orthogonalLoop=1;jettySize=auto;html=1;" edge="1" parent="0k5CihilNW5hbGHIhJcL-1" source="0k5CihilNW5hbGHIhJcL-33" target="0k5CihilNW5hbGHIhJcL-37">
          <mxGeometry relative="1" as="geometry" />
        </mxCell>
        <mxCell id="0k5CihilNW5hbGHIhJcL-33" value="校验是否成功？" style="rhombus;whiteSpace=wrap;html=1;" vertex="1" parent="0k5CihilNW5hbGHIhJcL-1">
          <mxGeometry x="512.5" y="927.5" width="120" height="75" as="geometry" />
        </mxCell>
        <mxCell id="0k5CihilNW5hbGHIhJcL-47" style="edgeStyle=orthogonalEdgeStyle;rounded=0;orthogonalLoop=1;jettySize=auto;html=1;entryX=0.5;entryY=0;entryDx=0;entryDy=0;" edge="1" parent="0k5CihilNW5hbGHIhJcL-1" source="0k5CihilNW5hbGHIhJcL-37" target="0k5CihilNW5hbGHIhJcL-41">
          <mxGeometry relative="1" as="geometry">
            <mxPoint x="377.5" y="620" as="targetPoint" />
            <Array as="points">
              <mxPoint x="377.5" y="650" />
            </Array>
          </mxGeometry>
        </mxCell>
        <mxCell id="0k5CihilNW5hbGHIhJcL-37" value="错误次数加1" style="rounded=1;whiteSpace=wrap;html=1;" vertex="1" parent="0k5CihilNW5hbGHIhJcL-1">
          <mxGeometry x="322.5" y="935" width="110" height="60" as="geometry" />
        </mxCell>
        <mxCell id="0k5CihilNW5hbGHIhJcL-40" value="" style="edgeStyle=orthogonalEdgeStyle;rounded=0;orthogonalLoop=1;jettySize=auto;html=1;" edge="1" parent="0k5CihilNW5hbGHIhJcL-1" source="0k5CihilNW5hbGHIhJcL-38" target="0k5CihilNW5hbGHIhJcL-32">
          <mxGeometry relative="1" as="geometry" />
        </mxCell>
        <mxCell id="0k5CihilNW5hbGHIhJcL-38" value="找当前地址的上个地址" style="rounded=1;whiteSpace=wrap;html=1;" vertex="1" parent="0k5CihilNW5hbGHIhJcL-1">
          <mxGeometry x="512.5" y="780" width="120" height="50" as="geometry" />
        </mxCell>
        <mxCell id="0k5CihilNW5hbGHIhJcL-42" value="N" style="edgeStyle=orthogonalEdgeStyle;rounded=0;orthogonalLoop=1;jettySize=auto;html=1;" edge="1" parent="0k5CihilNW5hbGHIhJcL-1" source="0k5CihilNW5hbGHIhJcL-41" target="0k5CihilNW5hbGHIhJcL-38">
          <mxGeometry relative="1" as="geometry" />
        </mxCell>
        <mxCell id="0k5CihilNW5hbGHIhJcL-43" value="Y" style="edgeStyle=orthogonalEdgeStyle;rounded=0;orthogonalLoop=1;jettySize=auto;html=1;exitX=1;exitY=0.5;exitDx=0;exitDy=0;entryX=0.5;entryY=1;entryDx=0;entryDy=0;" edge="1" parent="0k5CihilNW5hbGHIhJcL-1" source="0k5CihilNW5hbGHIhJcL-41" target="0k5CihilNW5hbGHIhJcL-9">
          <mxGeometry relative="1" as="geometry" />
        </mxCell>
        <mxCell id="0k5CihilNW5hbGHIhJcL-41" value="判断当前错误次数是&lt;br&gt;否大于最大值" style="rhombus;whiteSpace=wrap;html=1;" vertex="1" parent="0k5CihilNW5hbGHIhJcL-1">
          <mxGeometry x="502.5" y="650" width="140" height="100" as="geometry" />
        </mxCell>
        <mxCell id="0k5CihilNW5hbGHIhJcL-53" value="&lt;font style=&quot;font-size: 24px&quot;&gt;ID和CFG存储区读取流程图&lt;/font&gt;" style="text;html=1;strokeColor=none;fillColor=none;align=center;verticalAlign=middle;whiteSpace=wrap;rounded=0;" vertex="1" parent="0k5CihilNW5hbGHIhJcL-1">
          <mxGeometry x="30" y="10" width="350" height="60" as="geometry" />
        </mxCell>
      </root>
    </mxGraphModel>
  </diagram>
  <diagram id="oGbjyDqUBJJgPPJOLoaw" name="Page-6">
    <mxGraphModel dx="1393" dy="762" grid="1" gridSize="10" guides="1" tooltips="1" connect="1" arrows="1" fold="1" page="1" pageScale="1" pageWidth="827" pageHeight="1169" math="0" shadow="0">
      <root>
        <mxCell id="4XJBpuxP0owyClHNGntF-0" />
        <mxCell id="4XJBpuxP0owyClHNGntF-1" parent="4XJBpuxP0owyClHNGntF-0" />
        <mxCell id="LKzUbWEh7rmWEhjL_A-J-0" style="edgeStyle=orthogonalEdgeStyle;rounded=0;orthogonalLoop=1;jettySize=auto;html=1;exitX=0.5;exitY=1;exitDx=0;exitDy=0;entryX=0.5;entryY=0;entryDx=0;entryDy=0;" edge="1" parent="4XJBpuxP0owyClHNGntF-1" source="LKzUbWEh7rmWEhjL_A-J-1" target="LKzUbWEh7rmWEhjL_A-J-3">
          <mxGeometry relative="1" as="geometry" />
        </mxCell>
        <mxCell id="LKzUbWEh7rmWEhjL_A-J-1" value="&lt;font style=&quot;font-size: 18px&quot;&gt;开始&lt;/font&gt;" style="rounded=0;whiteSpace=wrap;html=1;" vertex="1" parent="4XJBpuxP0owyClHNGntF-1">
          <mxGeometry x="182.5" y="80" width="120" height="60" as="geometry" />
        </mxCell>
        <mxCell id="LKzUbWEh7rmWEhjL_A-J-2" style="edgeStyle=orthogonalEdgeStyle;rounded=0;orthogonalLoop=1;jettySize=auto;html=1;exitX=0.5;exitY=1;exitDx=0;exitDy=0;entryX=0.5;entryY=0;entryDx=0;entryDy=0;" edge="1" parent="4XJBpuxP0owyClHNGntF-1" source="LKzUbWEh7rmWEhjL_A-J-3" target="LKzUbWEh7rmWEhjL_A-J-7">
          <mxGeometry relative="1" as="geometry" />
        </mxCell>
        <mxCell id="LKzUbWEh7rmWEhjL_A-J-3" value="获取正在使用的&lt;br&gt;确切地址" style="rounded=1;whiteSpace=wrap;html=1;" vertex="1" parent="4XJBpuxP0owyClHNGntF-1">
          <mxGeometry x="182.5" y="180" width="120" height="60" as="geometry" />
        </mxCell>
        <mxCell id="LKzUbWEh7rmWEhjL_A-J-4" value="Y" style="edgeStyle=orthogonalEdgeStyle;rounded=0;orthogonalLoop=1;jettySize=auto;html=1;exitX=0.5;exitY=1;exitDx=0;exitDy=0;entryX=0.5;entryY=0;entryDx=0;entryDy=0;" edge="1" parent="4XJBpuxP0owyClHNGntF-1" source="LKzUbWEh7rmWEhjL_A-J-7" target="LKzUbWEh7rmWEhjL_A-J-33">
          <mxGeometry relative="1" as="geometry">
            <mxPoint x="242.5" y="380" as="targetPoint" />
          </mxGeometry>
        </mxCell>
        <mxCell id="LKzUbWEh7rmWEhjL_A-J-5" style="edgeStyle=orthogonalEdgeStyle;rounded=0;orthogonalLoop=1;jettySize=auto;html=1;" edge="1" parent="4XJBpuxP0owyClHNGntF-1" source="LKzUbWEh7rmWEhjL_A-J-7">
          <mxGeometry relative="1" as="geometry">
            <mxPoint x="600" y="305" as="targetPoint" />
          </mxGeometry>
        </mxCell>
        <mxCell id="LKzUbWEh7rmWEhjL_A-J-6" value="N" style="edgeLabel;html=1;align=center;verticalAlign=middle;resizable=0;points=[];" vertex="1" connectable="0" parent="LKzUbWEh7rmWEhjL_A-J-5">
          <mxGeometry x="0.1043" y="1" relative="1" as="geometry">
            <mxPoint as="offset" />
          </mxGeometry>
        </mxCell>
        <mxCell id="LKzUbWEh7rmWEhjL_A-J-7" value="判断获取的地址&lt;br&gt;是否有效？" style="rhombus;whiteSpace=wrap;html=1;" vertex="1" parent="4XJBpuxP0owyClHNGntF-1">
          <mxGeometry x="177.5" y="270" width="130" height="70" as="geometry" />
        </mxCell>
        <mxCell id="LKzUbWEh7rmWEhjL_A-J-8" value="reset该存储区" style="rounded=1;whiteSpace=wrap;html=1;" vertex="1" parent="4XJBpuxP0owyClHNGntF-1">
          <mxGeometry x="602.5" y="275" width="120" height="60" as="geometry" />
        </mxCell>
        <mxCell id="LKzUbWEh7rmWEhjL_A-J-9" value="Y" style="edgeStyle=orthogonalEdgeStyle;rounded=0;orthogonalLoop=1;jettySize=auto;html=1;exitX=0.5;exitY=1;exitDx=0;exitDy=0;" edge="1" parent="4XJBpuxP0owyClHNGntF-1" source="LKzUbWEh7rmWEhjL_A-J-11" target="LKzUbWEh7rmWEhjL_A-J-13">
          <mxGeometry relative="1" as="geometry" />
        </mxCell>
        <mxCell id="LKzUbWEh7rmWEhjL_A-J-10" value="N" style="edgeStyle=orthogonalEdgeStyle;rounded=0;orthogonalLoop=1;jettySize=auto;html=1;" edge="1" parent="4XJBpuxP0owyClHNGntF-1" source="LKzUbWEh7rmWEhjL_A-J-11" target="LKzUbWEh7rmWEhjL_A-J-19">
          <mxGeometry relative="1" as="geometry" />
        </mxCell>
        <mxCell id="LKzUbWEh7rmWEhjL_A-J-11" value="判断有效地址的&lt;br&gt;下个地址是否为空？" style="rhombus;whiteSpace=wrap;html=1;" vertex="1" parent="4XJBpuxP0owyClHNGntF-1">
          <mxGeometry x="170" y="460" width="145" height="80" as="geometry" />
        </mxCell>
        <mxCell id="LKzUbWEh7rmWEhjL_A-J-12" value="" style="edgeStyle=orthogonalEdgeStyle;rounded=0;orthogonalLoop=1;jettySize=auto;html=1;" edge="1" parent="4XJBpuxP0owyClHNGntF-1" source="LKzUbWEh7rmWEhjL_A-J-13" target="LKzUbWEh7rmWEhjL_A-J-16">
          <mxGeometry relative="1" as="geometry" />
        </mxCell>
        <mxCell id="LKzUbWEh7rmWEhjL_A-J-13" value="将数据写入flash并完成校验" style="rounded=1;whiteSpace=wrap;html=1;" vertex="1" parent="4XJBpuxP0owyClHNGntF-1">
          <mxGeometry x="182.5" y="580" width="120" height="60" as="geometry" />
        </mxCell>
        <mxCell id="LKzUbWEh7rmWEhjL_A-J-14" value="Y" style="edgeStyle=orthogonalEdgeStyle;rounded=0;orthogonalLoop=1;jettySize=auto;html=1;" edge="1" parent="4XJBpuxP0owyClHNGntF-1" source="LKzUbWEh7rmWEhjL_A-J-16" target="LKzUbWEh7rmWEhjL_A-J-17">
          <mxGeometry relative="1" as="geometry" />
        </mxCell>
        <mxCell id="LKzUbWEh7rmWEhjL_A-J-15" style="edgeStyle=orthogonalEdgeStyle;rounded=0;orthogonalLoop=1;jettySize=auto;html=1;entryX=0.5;entryY=0;entryDx=0;entryDy=0;" edge="1" parent="4XJBpuxP0owyClHNGntF-1" source="LKzUbWEh7rmWEhjL_A-J-16" target="LKzUbWEh7rmWEhjL_A-J-31">
          <mxGeometry relative="1" as="geometry">
            <Array as="points">
              <mxPoint x="350" y="718" />
              <mxPoint x="350" y="630" />
              <mxPoint x="573" y="630" />
            </Array>
          </mxGeometry>
        </mxCell>
        <mxCell id="LKzUbWEh7rmWEhjL_A-J-16" value="校验是否成功？" style="rhombus;whiteSpace=wrap;html=1;" vertex="1" parent="4XJBpuxP0owyClHNGntF-1">
          <mxGeometry x="182.5" y="685" width="120" height="65" as="geometry" />
        </mxCell>
        <mxCell id="LKzUbWEh7rmWEhjL_A-J-17" value="完成写入" style="rounded=1;whiteSpace=wrap;html=1;" vertex="1" parent="4XJBpuxP0owyClHNGntF-1">
          <mxGeometry x="182.5" y="1350" width="120" height="60" as="geometry" />
        </mxCell>
        <mxCell id="LKzUbWEh7rmWEhjL_A-J-18" style="edgeStyle=orthogonalEdgeStyle;rounded=0;orthogonalLoop=1;jettySize=auto;html=1;entryX=0.5;entryY=0;entryDx=0;entryDy=0;" edge="1" parent="4XJBpuxP0owyClHNGntF-1" source="LKzUbWEh7rmWEhjL_A-J-19" target="LKzUbWEh7rmWEhjL_A-J-7">
          <mxGeometry relative="1" as="geometry">
            <Array as="points">
              <mxPoint x="80" y="270" />
            </Array>
          </mxGeometry>
        </mxCell>
        <mxCell id="LKzUbWEh7rmWEhjL_A-J-19" value="遍历找空地址" style="rounded=1;whiteSpace=wrap;html=1;" vertex="1" parent="4XJBpuxP0owyClHNGntF-1">
          <mxGeometry x="20" y="380" width="120" height="60" as="geometry" />
        </mxCell>
        <mxCell id="LKzUbWEh7rmWEhjL_A-J-25" style="edgeStyle=orthogonalEdgeStyle;rounded=0;orthogonalLoop=1;jettySize=auto;html=1;entryX=0.5;entryY=0;entryDx=0;entryDy=0;" edge="1" parent="4XJBpuxP0owyClHNGntF-1" source="LKzUbWEh7rmWEhjL_A-J-26" target="LKzUbWEh7rmWEhjL_A-J-31">
          <mxGeometry relative="1" as="geometry">
            <mxPoint x="377.5" y="620" as="targetPoint" />
            <Array as="points">
              <mxPoint x="377.5" y="650" />
            </Array>
          </mxGeometry>
        </mxCell>
        <mxCell id="LKzUbWEh7rmWEhjL_A-J-26" value="错误次数加1" style="rounded=1;whiteSpace=wrap;html=1;" vertex="1" parent="4XJBpuxP0owyClHNGntF-1">
          <mxGeometry x="320" y="1092.5" width="110" height="60" as="geometry" />
        </mxCell>
        <mxCell id="LKzUbWEh7rmWEhjL_A-J-40" value="" style="edgeStyle=orthogonalEdgeStyle;rounded=0;orthogonalLoop=1;jettySize=auto;html=1;" edge="1" parent="4XJBpuxP0owyClHNGntF-1" source="LKzUbWEh7rmWEhjL_A-J-28" target="LKzUbWEh7rmWEhjL_A-J-36">
          <mxGeometry relative="1" as="geometry" />
        </mxCell>
        <mxCell id="LKzUbWEh7rmWEhjL_A-J-28" value="计算当前有效地址的下个地址" style="rounded=1;whiteSpace=wrap;html=1;" vertex="1" parent="4XJBpuxP0owyClHNGntF-1">
          <mxGeometry x="512.5" y="780" width="120" height="50" as="geometry" />
        </mxCell>
        <mxCell id="LKzUbWEh7rmWEhjL_A-J-29" value="N" style="edgeStyle=orthogonalEdgeStyle;rounded=0;orthogonalLoop=1;jettySize=auto;html=1;" edge="1" parent="4XJBpuxP0owyClHNGntF-1" source="LKzUbWEh7rmWEhjL_A-J-31" target="LKzUbWEh7rmWEhjL_A-J-28">
          <mxGeometry relative="1" as="geometry" />
        </mxCell>
        <mxCell id="LKzUbWEh7rmWEhjL_A-J-30" value="Y" style="edgeStyle=orthogonalEdgeStyle;rounded=0;orthogonalLoop=1;jettySize=auto;html=1;exitX=1;exitY=0.5;exitDx=0;exitDy=0;entryX=0.5;entryY=1;entryDx=0;entryDy=0;" edge="1" parent="4XJBpuxP0owyClHNGntF-1" source="LKzUbWEh7rmWEhjL_A-J-31" target="LKzUbWEh7rmWEhjL_A-J-8">
          <mxGeometry relative="1" as="geometry" />
        </mxCell>
        <mxCell id="LKzUbWEh7rmWEhjL_A-J-31" value="判断当前错误次数是&lt;br&gt;否大于最大值" style="rhombus;whiteSpace=wrap;html=1;" vertex="1" parent="4XJBpuxP0owyClHNGntF-1">
          <mxGeometry x="502.5" y="650" width="140" height="100" as="geometry" />
        </mxCell>
        <mxCell id="LKzUbWEh7rmWEhjL_A-J-32" value="&lt;font style=&quot;font-size: 24px&quot;&gt;ID和CFG存储区写入流程图&lt;/font&gt;" style="text;html=1;strokeColor=none;fillColor=none;align=center;verticalAlign=middle;whiteSpace=wrap;rounded=0;" vertex="1" parent="4XJBpuxP0owyClHNGntF-1">
          <mxGeometry x="30" y="10" width="350" height="60" as="geometry" />
        </mxCell>
        <mxCell id="LKzUbWEh7rmWEhjL_A-J-34" value="" style="edgeStyle=orthogonalEdgeStyle;rounded=0;orthogonalLoop=1;jettySize=auto;html=1;" edge="1" parent="4XJBpuxP0owyClHNGntF-1" source="LKzUbWEh7rmWEhjL_A-J-33" target="LKzUbWEh7rmWEhjL_A-J-11">
          <mxGeometry relative="1" as="geometry" />
        </mxCell>
        <mxCell id="LKzUbWEh7rmWEhjL_A-J-33" value="计算需要写入的&lt;br&gt;有效地址" style="rounded=1;whiteSpace=wrap;html=1;" vertex="1" parent="4XJBpuxP0owyClHNGntF-1">
          <mxGeometry x="182.5" y="370" width="120" height="60" as="geometry" />
        </mxCell>
        <mxCell id="LKzUbWEh7rmWEhjL_A-J-35" value="Y" style="edgeStyle=orthogonalEdgeStyle;rounded=0;orthogonalLoop=1;jettySize=auto;html=1;exitX=0.5;exitY=1;exitDx=0;exitDy=0;" edge="1" parent="4XJBpuxP0owyClHNGntF-1" source="LKzUbWEh7rmWEhjL_A-J-36" target="LKzUbWEh7rmWEhjL_A-J-38">
          <mxGeometry relative="1" as="geometry" />
        </mxCell>
        <mxCell id="LKzUbWEh7rmWEhjL_A-J-36" value="判断有效地址的&lt;br&gt;下个地址是否为空？" style="rhombus;whiteSpace=wrap;html=1;" vertex="1" parent="4XJBpuxP0owyClHNGntF-1">
          <mxGeometry x="500" y="860" width="145" height="80" as="geometry" />
        </mxCell>
        <mxCell id="LKzUbWEh7rmWEhjL_A-J-37" value="" style="edgeStyle=orthogonalEdgeStyle;rounded=0;orthogonalLoop=1;jettySize=auto;html=1;" edge="1" parent="4XJBpuxP0owyClHNGntF-1" source="LKzUbWEh7rmWEhjL_A-J-38" target="LKzUbWEh7rmWEhjL_A-J-39">
          <mxGeometry relative="1" as="geometry" />
        </mxCell>
        <mxCell id="LKzUbWEh7rmWEhjL_A-J-38" value="将数据写入flash并完成校验" style="rounded=1;whiteSpace=wrap;html=1;" vertex="1" parent="4XJBpuxP0owyClHNGntF-1">
          <mxGeometry x="512.5" y="990" width="120" height="60" as="geometry" />
        </mxCell>
        <mxCell id="LKzUbWEh7rmWEhjL_A-J-41" style="edgeStyle=orthogonalEdgeStyle;rounded=0;orthogonalLoop=1;jettySize=auto;html=1;entryX=0.5;entryY=0;entryDx=0;entryDy=0;" edge="1" parent="4XJBpuxP0owyClHNGntF-1" source="LKzUbWEh7rmWEhjL_A-J-39" target="LKzUbWEh7rmWEhjL_A-J-17">
          <mxGeometry relative="1" as="geometry">
            <Array as="points">
              <mxPoint x="573" y="1270" />
              <mxPoint x="243" y="1270" />
            </Array>
          </mxGeometry>
        </mxCell>
        <mxCell id="LKzUbWEh7rmWEhjL_A-J-42" value="Y" style="edgeLabel;html=1;align=center;verticalAlign=middle;resizable=0;points=[];" vertex="1" connectable="0" parent="LKzUbWEh7rmWEhjL_A-J-41">
          <mxGeometry x="-0.0229" y="-2" relative="1" as="geometry">
            <mxPoint as="offset" />
          </mxGeometry>
        </mxCell>
        <mxCell id="LKzUbWEh7rmWEhjL_A-J-43" style="edgeStyle=orthogonalEdgeStyle;rounded=0;orthogonalLoop=1;jettySize=auto;html=1;entryX=1;entryY=0.5;entryDx=0;entryDy=0;" edge="1" parent="4XJBpuxP0owyClHNGntF-1" source="LKzUbWEh7rmWEhjL_A-J-39" target="LKzUbWEh7rmWEhjL_A-J-26">
          <mxGeometry relative="1" as="geometry" />
        </mxCell>
        <mxCell id="LKzUbWEh7rmWEhjL_A-J-39" value="校验是否成功？" style="rhombus;whiteSpace=wrap;html=1;" vertex="1" parent="4XJBpuxP0owyClHNGntF-1">
          <mxGeometry x="512.5" y="1090" width="120" height="65" as="geometry" />
        </mxCell>
      </root>
    </mxGraphModel>
  </diagram>
  <diagram id="b8fuovPfPHKUdVeA7MGB" name="Page-7">
    <mxGraphModel dx="1393" dy="762" grid="1" gridSize="10" guides="1" tooltips="1" connect="1" arrows="1" fold="1" page="1" pageScale="1" pageWidth="827" pageHeight="1169" math="0" shadow="0">
      <root>
        <mxCell id="7-ibQw0b9SSNIRHH-9vu-0" />
        <mxCell id="7-ibQw0b9SSNIRHH-9vu-1" parent="7-ibQw0b9SSNIRHH-9vu-0" />
        <mxCell id="PewBdy9F4D9ggC0roEmK-2" value="" style="edgeStyle=orthogonalEdgeStyle;rounded=0;orthogonalLoop=1;jettySize=auto;html=1;entryX=0.5;entryY=0;entryDx=0;entryDy=0;" edge="1" parent="7-ibQw0b9SSNIRHH-9vu-1" source="PewBdy9F4D9ggC0roEmK-0" target="PewBdy9F4D9ggC0roEmK-3">
          <mxGeometry relative="1" as="geometry">
            <mxPoint x="380" y="160" as="targetPoint" />
          </mxGeometry>
        </mxCell>
        <mxCell id="PewBdy9F4D9ggC0roEmK-0" value="开始" style="rounded=0;whiteSpace=wrap;html=1;" vertex="1" parent="7-ibQw0b9SSNIRHH-9vu-1">
          <mxGeometry x="320" y="60" width="120" height="60" as="geometry" />
        </mxCell>
        <mxCell id="PewBdy9F4D9ggC0roEmK-6" value="Y" style="edgeStyle=orthogonalEdgeStyle;rounded=0;orthogonalLoop=1;jettySize=auto;html=1;exitX=0.5;exitY=1;exitDx=0;exitDy=0;entryX=0.5;entryY=0;entryDx=0;entryDy=0;" edge="1" parent="7-ibQw0b9SSNIRHH-9vu-1" source="PewBdy9F4D9ggC0roEmK-3" target="PewBdy9F4D9ggC0roEmK-7">
          <mxGeometry relative="1" as="geometry">
            <mxPoint x="380" y="330" as="targetPoint" />
          </mxGeometry>
        </mxCell>
        <mxCell id="PewBdy9F4D9ggC0roEmK-19" style="edgeStyle=orthogonalEdgeStyle;rounded=0;orthogonalLoop=1;jettySize=auto;html=1;exitX=0;exitY=0.5;exitDx=0;exitDy=0;entryX=0.5;entryY=0;entryDx=0;entryDy=0;" edge="1" parent="7-ibQw0b9SSNIRHH-9vu-1" source="PewBdy9F4D9ggC0roEmK-3" target="PewBdy9F4D9ggC0roEmK-18">
          <mxGeometry relative="1" as="geometry" />
        </mxCell>
        <mxCell id="PewBdy9F4D9ggC0roEmK-3" value="判断ram上的确切&lt;br&gt;地址是否有效？" style="rhombus;whiteSpace=wrap;html=1;" vertex="1" parent="7-ibQw0b9SSNIRHH-9vu-1">
          <mxGeometry x="300" y="180" width="160" height="80" as="geometry" />
        </mxCell>
        <mxCell id="PewBdy9F4D9ggC0roEmK-9" value="Y" style="edgeStyle=orthogonalEdgeStyle;rounded=0;orthogonalLoop=1;jettySize=auto;html=1;" edge="1" parent="7-ibQw0b9SSNIRHH-9vu-1" source="PewBdy9F4D9ggC0roEmK-7" target="PewBdy9F4D9ggC0roEmK-8">
          <mxGeometry relative="1" as="geometry" />
        </mxCell>
        <mxCell id="PewBdy9F4D9ggC0roEmK-7" value="计算需要写入的地址" style="rounded=1;whiteSpace=wrap;html=1;" vertex="1" parent="7-ibQw0b9SSNIRHH-9vu-1">
          <mxGeometry x="320" y="300" width="120" height="60" as="geometry" />
        </mxCell>
        <mxCell id="PewBdy9F4D9ggC0roEmK-11" value="Y" style="edgeStyle=orthogonalEdgeStyle;rounded=0;orthogonalLoop=1;jettySize=auto;html=1;" edge="1" parent="7-ibQw0b9SSNIRHH-9vu-1" source="PewBdy9F4D9ggC0roEmK-8" target="PewBdy9F4D9ggC0roEmK-10">
          <mxGeometry relative="1" as="geometry" />
        </mxCell>
        <mxCell id="PewBdy9F4D9ggC0roEmK-8" value="判断需要写入的地址&lt;br&gt;下个地址是否为空？" style="rhombus;whiteSpace=wrap;html=1;" vertex="1" parent="7-ibQw0b9SSNIRHH-9vu-1">
          <mxGeometry x="320" y="410" width="125" height="80" as="geometry" />
        </mxCell>
        <mxCell id="PewBdy9F4D9ggC0roEmK-13" value="" style="edgeStyle=orthogonalEdgeStyle;rounded=0;orthogonalLoop=1;jettySize=auto;html=1;" edge="1" parent="7-ibQw0b9SSNIRHH-9vu-1" source="PewBdy9F4D9ggC0roEmK-10" target="PewBdy9F4D9ggC0roEmK-12">
          <mxGeometry relative="1" as="geometry" />
        </mxCell>
        <mxCell id="PewBdy9F4D9ggC0roEmK-10" value="将ram上的对应值更新到暂存的结构体变量中" style="rounded=1;whiteSpace=wrap;html=1;" vertex="1" parent="7-ibQw0b9SSNIRHH-9vu-1">
          <mxGeometry x="320" y="540" width="120" height="60" as="geometry" />
        </mxCell>
        <mxCell id="PewBdy9F4D9ggC0roEmK-15" value="" style="edgeStyle=orthogonalEdgeStyle;rounded=0;orthogonalLoop=1;jettySize=auto;html=1;" edge="1" parent="7-ibQw0b9SSNIRHH-9vu-1" source="PewBdy9F4D9ggC0roEmK-12" target="PewBdy9F4D9ggC0roEmK-14">
          <mxGeometry relative="1" as="geometry" />
        </mxCell>
        <mxCell id="PewBdy9F4D9ggC0roEmK-12" value="写入数据并校验" style="rounded=1;whiteSpace=wrap;html=1;" vertex="1" parent="7-ibQw0b9SSNIRHH-9vu-1">
          <mxGeometry x="320" y="660" width="120" height="60" as="geometry" />
        </mxCell>
        <mxCell id="PewBdy9F4D9ggC0roEmK-17" value="Y" style="edgeStyle=orthogonalEdgeStyle;rounded=0;orthogonalLoop=1;jettySize=auto;html=1;" edge="1" parent="7-ibQw0b9SSNIRHH-9vu-1" source="PewBdy9F4D9ggC0roEmK-14" target="PewBdy9F4D9ggC0roEmK-16">
          <mxGeometry relative="1" as="geometry" />
        </mxCell>
        <mxCell id="PewBdy9F4D9ggC0roEmK-25" style="edgeStyle=orthogonalEdgeStyle;rounded=0;orthogonalLoop=1;jettySize=auto;html=1;entryX=0.5;entryY=0;entryDx=0;entryDy=0;" edge="1" parent="7-ibQw0b9SSNIRHH-9vu-1" source="PewBdy9F4D9ggC0roEmK-14" target="PewBdy9F4D9ggC0roEmK-18">
          <mxGeometry relative="1" as="geometry">
            <Array as="points">
              <mxPoint x="60" y="790" />
              <mxPoint x="60" y="280" />
              <mxPoint x="200" y="280" />
            </Array>
          </mxGeometry>
        </mxCell>
        <mxCell id="PewBdy9F4D9ggC0roEmK-26" value="N" style="edgeLabel;html=1;align=center;verticalAlign=middle;resizable=0;points=[];" vertex="1" connectable="0" parent="PewBdy9F4D9ggC0roEmK-25">
          <mxGeometry x="-0.8339" y="-2" relative="1" as="geometry">
            <mxPoint as="offset" />
          </mxGeometry>
        </mxCell>
        <mxCell id="PewBdy9F4D9ggC0roEmK-14" value="校验是否成功？" style="rhombus;whiteSpace=wrap;html=1;" vertex="1" parent="7-ibQw0b9SSNIRHH-9vu-1">
          <mxGeometry x="305" y="750" width="150" height="80" as="geometry" />
        </mxCell>
        <mxCell id="PewBdy9F4D9ggC0roEmK-16" value="完成写入" style="rounded=1;whiteSpace=wrap;html=1;" vertex="1" parent="7-ibQw0b9SSNIRHH-9vu-1">
          <mxGeometry x="320" y="890" width="120" height="60" as="geometry" />
        </mxCell>
        <mxCell id="PewBdy9F4D9ggC0roEmK-21" value="" style="edgeStyle=orthogonalEdgeStyle;rounded=0;orthogonalLoop=1;jettySize=auto;html=1;" edge="1" parent="7-ibQw0b9SSNIRHH-9vu-1" source="PewBdy9F4D9ggC0roEmK-18" target="PewBdy9F4D9ggC0roEmK-20">
          <mxGeometry relative="1" as="geometry" />
        </mxCell>
        <mxCell id="PewBdy9F4D9ggC0roEmK-18" value="遍历寻找地址" style="rounded=1;whiteSpace=wrap;html=1;" vertex="1" parent="7-ibQw0b9SSNIRHH-9vu-1">
          <mxGeometry x="140" y="300" width="120" height="60" as="geometry" />
        </mxCell>
        <mxCell id="PewBdy9F4D9ggC0roEmK-23" style="edgeStyle=orthogonalEdgeStyle;rounded=0;orthogonalLoop=1;jettySize=auto;html=1;exitX=1;exitY=0.5;exitDx=0;exitDy=0;entryX=0.5;entryY=0;entryDx=0;entryDy=0;" edge="1" parent="7-ibQw0b9SSNIRHH-9vu-1" source="PewBdy9F4D9ggC0roEmK-20" target="PewBdy9F4D9ggC0roEmK-7">
          <mxGeometry relative="1" as="geometry" />
        </mxCell>
        <mxCell id="PewBdy9F4D9ggC0roEmK-24" value="Y" style="edgeLabel;html=1;align=center;verticalAlign=middle;resizable=0;points=[];" vertex="1" connectable="0" parent="PewBdy9F4D9ggC0roEmK-23">
          <mxGeometry x="-0.4323" y="-2" relative="1" as="geometry">
            <mxPoint as="offset" />
          </mxGeometry>
        </mxCell>
        <mxCell id="PewBdy9F4D9ggC0roEmK-27" value="N" style="edgeStyle=orthogonalEdgeStyle;rounded=0;orthogonalLoop=1;jettySize=auto;html=1;exitX=0.5;exitY=1;exitDx=0;exitDy=0;entryX=0.5;entryY=0;entryDx=0;entryDy=0;" edge="1" parent="7-ibQw0b9SSNIRHH-9vu-1" source="PewBdy9F4D9ggC0roEmK-20" target="PewBdy9F4D9ggC0roEmK-22">
          <mxGeometry relative="1" as="geometry" />
        </mxCell>
        <mxCell id="PewBdy9F4D9ggC0roEmK-20" value="是否找到地址？" style="rhombus;whiteSpace=wrap;html=1;" vertex="1" parent="7-ibQw0b9SSNIRHH-9vu-1">
          <mxGeometry x="140" y="410" width="120" height="80" as="geometry" />
        </mxCell>
        <mxCell id="PewBdy9F4D9ggC0roEmK-22" value="reset sta存储区" style="rounded=1;whiteSpace=wrap;html=1;" vertex="1" parent="7-ibQw0b9SSNIRHH-9vu-1">
          <mxGeometry x="140" y="540" width="120" height="60" as="geometry" />
        </mxCell>
      </root>
    </mxGraphModel>
  </diagram>
</mxfile>
